<svg width="54" height="54" viewBox="0 0 54 54" fill="none" xmlns="http://www.w3.org/2000/svg">
    <path d="M27 51a4.34 4.34 0 0 0 4.341-4.341h-8.683A4.34 4.34 0 0 0 26.999 51zm18.087-10.276-2.815-2.814V24.819c0-7.31-5.149-13.419-12-14.902V7.364A3.268 3.268 0 0 0 27 4.091a3.268 3.268 0 0 0-3.272 3.273v2.553c-6.851 1.483-12 7.592-12 14.902v13.09l-2.815 2.815c-1.374 1.375-.414 3.73 1.527 3.73h33.099c1.963 0 2.923-2.355 1.549-3.73zM29.18 35.728h-4.363v-4.364h4.363v4.364zm0-10.91C29.181 26.019 28.2 27 27 27s-2.181-.981-2.181-2.181v-4.364c0-1.2.981-2.182 2.181-2.182 1.2 0 2.182.982 2.182 2.182v4.364z" fill="#fff"/>
</svg>
