<svg width="220" height="220" viewBox="0 0 220 220" fill="none" xmlns="http://www.w3.org/2000/svg">
    <path d="M110 220c60.751 0 110-49.182 110-109.85C220 49.481 170.751.3 110 .3S0 49.48 0 110.15C0 170.818 49.249 220 110 220z" fill="#000"/>
    <path d="M129.3 50.831c-1 0-1.9-.6-2.3-1.498l-6.1-14.78c-.5-1.298.1-2.696 1.4-3.295 1.3-.5 2.7.1 3.3 1.398l6.1 14.78c.5 1.298-.1 2.696-1.4 3.295-.3.1-.7.1-1 .1zM173.7 69.206c-1 0-1.9-.6-2.3-1.498-.5-1.299.1-2.697 1.4-3.296l14.8-6.092c1.3-.499 2.7.1 3.3 1.399.6 1.298-.1 2.696-1.4 3.295l-14.8 6.092c-.3.1-.7.1-1 .1zM155.3 50.83c-.3 0-.6-.1-1-.2-1.3-.498-1.9-1.996-1.4-3.295l6.1-14.78c.5-1.298 2-1.897 3.3-1.398 1.3.5 1.9 1.998 1.4 3.296l-6.1 14.78c-.4.998-1.3 1.598-2.3 1.598z" fill="#fff"/>
    <path d="M158.001 152.692c.6-.2 1.2-.499 1.8-.799 2.5-1.498 3.9-3.895 4.9-6.591 1.9-5.293.8-9.986-3.3-13.781-.7-.599-.6-.999 0-1.598 2.7-2.497 4.9-5.293 5.5-9.088.3-1.997.4-3.994-.7-5.792-.8-1.298-2-2.297-3.1-3.395-.8-.699-1.8-1.298-2.8-1.997.4-.4.7-.699.9-1.099.9-1.098 2-2.097 2.6-3.295 3.1-5.393 2.3-11.285-3.4-14.88-1.4-.899-3.1-1.398-4.6-1.997-1.2-.5-1.2-.5-.8-1.698.3-.6.4-1.298.7-1.898 2.5-5.991-1.4-12.283-5-14.48-3.7-2.197-7.6-2.097-11.4-.599-10.2 3.995-20.3 8.09-30.5 12.084-.3.1-.6.2-.9.4-.6.199-.9 0-1-.5-.2-.7-.4-1.498-.6-2.197-1.3-5.493-3.5-10.786-6-15.879-2.4-4.893-6.1-8.688-10.8-11.484-5.1-2.996-10.3-3.196-15.5-.4-1 .5-1.8 1.299-2.7 1.998-.5.4-.7.998-.4 1.698.6 1.597 1.2 3.095 1.9 4.693 2 4.594 4.1 9.188 6.1 13.781.8 1.898 1 3.895.7 5.992-.4 2.896-4.7 32.656-4.9 34.553l18.5 64.013 64.8-25.765z" fill="#C7C7CC"/>
    <path d="m93.1 178.557-18.5-64.013-2.4-8.189-69.6 27.762c6.6 29.46 25 54.426 50 69.805l42.9-17.177-2.4-8.188zM93.1 178.556l-18.5-64.112 18.5 64.112z" fill="#C8102E"/>
</svg>
