<svg width="40" height="40" viewBox="0 0 40 40" fill="none" xmlns="http://www.w3.org/2000/svg">
    <path d="M25.555 18.055H27.5v-2.083H30v-1.944h-2.5v-2.084h-1.945v6.111zM10 15.972h13.333v-1.944H10v1.944zm2.5 8.75h1.944v-6.11H12.5v2.083H10v1.944h2.5v2.083zm4.166-2.083H30v-1.944H16.666v1.944zM6.111 31.667a2.675 2.675 0 0 1-1.962-.816 2.675 2.675 0 0 1-.816-1.962V7.778c0-.764.272-1.418.816-1.962A2.675 2.675 0 0 1 6.111 5h27.778c.764 0 1.417.272 1.961.816.544.544.816 1.198.816 1.962v21.11c0 .765-.272 1.419-.816 1.963a2.675 2.675 0 0 1-1.961.816H6.11zm0-2.778h27.778V7.778H6.11v21.11z" fill="#fff"/>
</svg>
