<svg width="40" height="40" viewBox="0 0 40 40" fill="none" xmlns="http://www.w3.org/2000/svg">
    <path d="M8.056 31.667c-.394 0-.723-.134-.99-.401a1.351 1.351 0 0 1-.399-.993c0-.395.133-.724.4-.988a1.35 1.35 0 0 1 .989-.396h2.056V16.5c0-2.287.69-4.345 2.069-6.174 1.38-1.828 3.19-2.993 5.43-3.493V5.64c0-.658.232-1.206.695-1.646.463-.44 1.026-.66 1.688-.66.662 0 1.226.22 1.694.66.467.44.701.988.701 1.646v1.194c2.241.5 4.056 1.665 5.445 3.493 1.389 1.83 2.083 3.887 2.083 6.174v12.389h2.028c.393 0 .723.134.99.4.266.268.399.599.399.994s-.133.724-.4.988a1.35 1.35 0 0 1-.99.396H8.057zm11.944 5c-.898 0-1.678-.327-2.34-.98-.662-.652-.993-1.437-.993-2.354h6.667a3.21 3.21 0 0 1-.98 2.355 3.21 3.21 0 0 1-2.354.979zm-7.11-7.778h14.25V16.5c0-2-.686-3.694-2.056-5.083-1.37-1.39-3.051-2.084-5.042-2.084-1.99 0-3.68.695-5.07 2.084-1.388 1.389-2.083 3.083-2.083 5.083v12.389z" fill="#fff"/>
</svg>
