<svg width="24" height="24" viewBox="0 0 24 24" fill="none" xmlns="http://www.w3.org/2000/svg">
<path d="M24 6H13.6652L12.5854 11.8703L12.4449 12.8075L12.2498 11.8703L10.7693 6H8.06332L6.58283 11.8573L6.39028 12.7945L6.24718 11.8573L5.16999 6H0L0.463139 8.53297H3.04683C3.06765 8.65532 3.33304 10.0949 3.65828 11.8703C4.13963 14.4944 4.75109 17.811 4.88379 18.48H7.83174L9.28881 12.1645L9.4111 11.6829L9.53339 12.1645L10.9905 18.48H13.9436C14.0763 17.811 14.6878 14.4944 15.1691 11.8703C15.4944 10.1027 15.7598 8.65532 15.7806 8.53297H23.5317L24 6Z" fill="#4C85A9"/>
</svg>
