<svg width="40" height="40" viewBox="0 0 40 40" fill="none" xmlns="http://www.w3.org/2000/svg">
    <circle cx="20" cy="20" r="20" fill="#fff"/>
    <g clipPath="url(#ufwzhfye2a)">
        <path d="M24.587 10H22.5V8.75c0-.688-.563-1.25-1.25-1.25h-2.5c-.688 0-1.25.563-1.25 1.25V10h-2.088a1.67 1.67 0 0 0-1.662 1.662v19.163c0 .925.75 1.675 1.675 1.675h9.15c.925 0 1.675-.75 1.675-1.663V11.663A1.67 1.67 0 0 0 24.587 10z" fill="#404045"/>
    </g>
    <defs>
        <clipPath id="ufwzhfye2a">
            <path fill="#fff" transform="translate(5 5)" d="M0 0h30v30H0z"/>
        </clipPath>
    </defs>
</svg>
