<svg width="24" height="24" viewBox="0 0 24 24" fill="none" xmlns="http://www.w3.org/2000/svg">
    <path d="m7.581 4.08-1.43-1.43c-2.4 1.83-3.98 4.65-4.12 7.85h2a8.445 8.445 0 0 1 3.55-6.42zm12.39 6.42h2c-.15-3.2-1.73-6.02-4.12-7.85l-1.42 1.43a8.495 8.495 0 0 1 3.54 6.42zm-1.97.5c0-3.07-1.64-5.64-4.5-6.32V4c0-.83-.67-1.5-1.5-1.5s-1.5.67-1.5 1.5v.68c-2.87.68-4.5 3.24-4.5 6.32v5l-2 2v1h16v-1l-2-2v-5zm-6 11c.14 0 .27-.01.4-.04a2.03 2.03 0 0 0 1.44-1.18c.1-.24.15-.5.15-.78h-4c.01 1.1.9 2 2.01 2z" fill="#fff"/>
</svg>
