<svg width="40" height="40" viewBox="0 0 40 40" fill="none" xmlns="http://www.w3.org/2000/svg">
    <circle cx="20" cy="20" r="20" fill="#000"/>
    <path d="M25.668 18.972a3.735 3.735 0 0 1 2.146 1.037c1.14 1.108 1.363 2.66.54 4.032 1.474.416 2.646 1.75 2.646 3.408C31 29.522 29.219 31 27.331 31H12.67C10.78 31 9 29.523 9 27.45c0-1.659 1.172-2.993 2.65-3.41a3.449 3.449 0 0 1-.498-1.778c0-.763.28-1.63.89-2.275.447-.478 1.074-.832 1.893-.934-1.944-3.359 2.647-8.396 5.082-10.03.103-.067.232.02.223.147-.017 2.486-.197 5.183 2.818 5.019.898-.068 2.011.456 2.668 1.086.695.668 1.14 1.58 1.14 2.558 0 .388-.069.776-.198 1.14z" fill="#fff"/>
</svg>
