<svg width="58" height="58" viewBox="0 0 58 58" fill="none" xmlns="http://www.w3.org/2000/svg">
    <g clipPath="url(#3wkivehs2a)">
        <path d="M21.8 50.6c0 1.2.96 2.4 2.4 2.4h9.6c1.44 0 2.4-1.2 2.4-2.4v-2.4H21.8v2.4zM29 5c-9.36 0-16.8 7.44-16.8 16.8 0 5.76 2.88 10.8 7.2 13.68V41c0 1.2.96 2.4 2.4 2.4h14.4c1.44 0 2.4-1.2 2.4-2.4v-5.52c4.32-3.12 7.2-8.16 7.2-13.68C45.8 12.44 38.36 5 29 5z" fill="#fff"/>
    </g>
    <defs>
        <clipPath id="3wkivehs2a">
            <path fill="#fff" transform="translate(.2 .2)" d="M0 0h57.6v57.6H0z"/>
        </clipPath>
    </defs>
</svg>
