<svg width="72" height="72" viewBox="0 0 72 72" fill="none" xmlns="http://www.w3.org/2000/svg">
    <rect width="72" height="72" rx="8" fill="#F15F31"/>
    <g clipPath="url(#vofr8incua)">
        <path d="M43.188 38.4V19.2a7.19 7.19 0 0 0-7.2-7.2 7.19 7.19 0 0 0-7.2 7.2v19.2a12.023 12.023 0 0 0-4.8 9.6c0 6.624 5.376 12 12 12s12-5.376 12-12c0-3.912-1.896-7.416-4.8-9.6zm-4.8-4.8h-4.8V19.2c0-1.32 1.08-2.4 2.4-2.4 1.32 0 2.4 1.08 2.4 2.4h-1.2c-.672 0-1.2.528-1.2 1.2 0 .672.528 1.2 1.2 1.2h1.2v4.8h-1.2c-.672 0-1.2.528-1.2 1.2 0 .672.528 1.2 1.2 1.2h1.2v4.8z" fill="#fff"/>
    </g>
    <defs>
        <clipPath id="vofr8incua">
            <path fill="#fff" transform="translate(7.2 7.2)" d="M0 0h57.6v57.6H0z"/>
        </clipPath>
    </defs>
</svg>
