<svg width="139" height="139" viewBox="0 0 139 139" fill="none" xmlns="http://www.w3.org/2000/svg">
    <path d="M25.455 99.433c-.914.621-2.16.385-2.748-.55a55.254 55.254 0 0 1-8.368-32.589c.064-1.102 1.044-1.91 2.143-1.806l13.07 1.236c1.1.104 1.902 1.08 1.856 2.183a38.125 38.125 0 0 0 5.48 21.34c.571.944.339 2.186-.575 2.806l-10.858 7.38zM16.739 62.273c-1.095-.15-1.864-1.16-1.675-2.248a55.255 55.255 0 0 1 15.588-29.817c.785-.777 2.054-.721 2.801.092l8.887 9.664c.747.813.69 2.074-.083 2.864a38.126 38.126 0 0 0-10.206 19.524c-.207 1.085-1.21 1.852-2.305 1.702l-13.007-1.782z" fill="#55B966"/>
    <path d="M35.126 28.825c-.712-.844-.609-2.11.26-2.791a55.255 55.255 0 0 1 31.535-11.728c1.104-.052 2.01.838 2.02 1.942l.138 13.128c.012 1.105-.875 2.004-1.977 2.074a38.126 38.126 0 0 0-20.65 7.68c-.88.667-2.139.566-2.852-.278l-8.474-10.027zM71.172 16.272c.035-1.104.959-1.975 2.06-1.9a55.257 55.257 0 0 1 31.284 12.385c.854.7.931 1.967.201 2.796L96.035 39.4c-.73.828-1.991.903-2.857.217a38.127 38.127 0 0 0-20.484-8.11c-1.1-.092-1.969-1.01-1.934-2.114l.412-13.122z" fill="#FFC20F"/>
    <path d="M106.359 31.062c.764-.797 2.033-.826 2.803-.033a55.265 55.265 0 0 1 14.96 30.137c.166 1.092-.624 2.085-1.721 2.212l-13.042 1.509c-1.097.127-2.084-.661-2.268-1.75a38.13 38.13 0 0 0-9.796-19.734c-.757-.805-.788-2.067-.023-2.865l9.087-9.476z" fill="#F15F31"/>
    <path d="M122.535 64.672c1.1-.1 2.076.71 2.137 1.814a55.257 55.257 0 0 1-8.481 32.559c-.591.933-1.839 1.165-2.75.54l-10.833-7.417c-.911-.624-1.139-1.866-.564-2.809a38.118 38.118 0 0 0 5.553-21.32c-.042-1.103.763-2.077 1.863-2.177l13.075-1.19z" fill="#F2F2F7"/>
</svg>
