<svg width="160" height="155" viewBox="0 0 160 155" fill="none" xmlns="http://www.w3.org/2000/svg">
<path d="M57.6425 33.2031H59.8397V41.7549C59.8397 42.7275 59.6288 43.542 59.2069 44.1982C58.785 44.8545 58.2108 45.3496 57.4843 45.6836C56.7636 46.0117 55.9579 46.1758 55.0673 46.1758C54.1473 46.1758 53.327 46.0117 52.6063 45.6836C51.8856 45.3496 51.3173 44.8545 50.9012 44.1982C50.4911 43.542 50.286 42.7275 50.286 41.7549V33.2031H52.4833V41.7549C52.4833 42.3701 52.5887 42.877 52.7997 43.2754C53.0106 43.668 53.3095 43.958 53.6962 44.1455C54.0829 44.333 54.5399 44.4268 55.0673 44.4268C55.5946 44.4268 56.0487 44.333 56.4296 44.1455C56.8163 43.958 57.1151 43.668 57.3261 43.2754C57.537 42.877 57.6425 42.3701 57.6425 41.7549V33.2031ZM70.4116 42.7041C70.4116 42.4404 70.3705 42.2061 70.2885 42.001C70.2123 41.7959 70.0746 41.6084 69.8754 41.4385C69.6762 41.2686 69.395 41.1045 69.0317 40.9463C68.6743 40.7822 68.2172 40.6152 67.6606 40.4453C67.0512 40.2578 66.4887 40.0498 65.9731 39.8213C65.4633 39.5869 65.018 39.3174 64.6371 39.0127C64.2563 38.7021 63.9604 38.3477 63.7495 37.9492C63.5385 37.5449 63.433 37.0791 63.433 36.5518C63.433 36.0303 63.5414 35.5557 63.7582 35.1279C63.9809 34.7002 64.2944 34.3311 64.6987 34.0205C65.1088 33.7041 65.5922 33.4609 66.1489 33.291C66.7055 33.1152 67.3207 33.0273 67.9946 33.0273C68.9438 33.0273 69.7612 33.2031 70.4467 33.5547C71.1381 33.9062 71.6684 34.3779 72.0375 34.9697C72.4125 35.5615 72.6 36.2148 72.6 36.9297H70.4116C70.4116 36.5078 70.3207 36.1357 70.1391 35.8135C69.9633 35.4854 69.6938 35.2275 69.3305 35.04C68.9731 34.8525 68.519 34.7588 67.9682 34.7588C67.4467 34.7588 67.0131 34.8379 66.6674 34.9961C66.3217 35.1543 66.0639 35.3682 65.894 35.6377C65.7241 35.9072 65.6391 36.2119 65.6391 36.5518C65.6391 36.792 65.6948 37.0117 65.8061 37.2109C65.9174 37.4043 66.0873 37.5859 66.3159 37.7559C66.5444 37.9199 66.8315 38.0752 67.1772 38.2217C67.5229 38.3682 67.9301 38.5088 68.3989 38.6436C69.1079 38.8545 69.726 39.0889 70.2534 39.3467C70.7807 39.5986 71.2202 39.8857 71.5717 40.208C71.9233 40.5303 72.187 40.8965 72.3627 41.3066C72.5385 41.7109 72.6264 42.1709 72.6264 42.6865C72.6264 43.2256 72.518 43.7119 72.3012 44.1455C72.0844 44.5732 71.7739 44.9395 71.3696 45.2441C70.9711 45.543 70.4907 45.7744 69.9282 45.9385C69.3715 46.0967 68.7504 46.1758 68.0649 46.1758C67.4496 46.1758 66.8432 46.0938 66.2455 45.9297C65.6537 45.7656 65.1147 45.5166 64.6284 45.1826C64.142 44.8428 63.7553 44.4209 63.4682 43.917C63.1811 43.4072 63.0375 42.8125 63.0375 42.1328H65.2436C65.2436 42.5488 65.3139 42.9033 65.4545 43.1963C65.601 43.4893 65.8032 43.7295 66.061 43.917C66.3188 44.0986 66.6176 44.2334 66.9575 44.3213C67.3032 44.4092 67.6723 44.4531 68.0649 44.4531C68.5805 44.4531 69.0112 44.3799 69.3569 44.2334C69.7084 44.0869 69.9721 43.8818 70.1479 43.6182C70.3237 43.3545 70.4116 43.0498 70.4116 42.7041ZM81.001 34.9082L77.1777 46H74.8662L79.6826 33.2031H81.1592L81.001 34.9082ZM84.2002 46L80.3682 34.9082L80.2012 33.2031H81.6865L86.5205 46H84.2002ZM84.0156 41.2539V43.0029H77.0547V41.2539H84.0156ZM99.0787 39.4609V44.3477C98.897 44.5879 98.6129 44.8516 98.2261 45.1387C97.8453 45.4199 97.3384 45.6631 96.7056 45.8682C96.0728 46.0732 95.2847 46.1758 94.3414 46.1758C93.5386 46.1758 92.8033 46.041 92.1353 45.7715C91.4673 45.4961 90.8902 45.0947 90.4039 44.5674C89.9234 44.04 89.5513 43.3984 89.2877 42.6426C89.024 41.8809 88.8921 41.0137 88.8921 40.041V39.1533C88.8921 38.1865 89.0123 37.3252 89.2525 36.5693C89.4986 35.8076 89.8502 35.1631 90.3072 34.6357C90.7642 34.1084 91.315 33.71 91.9595 33.4404C92.6099 33.165 93.3453 33.0273 94.1656 33.0273C95.2144 33.0273 96.0816 33.2031 96.7671 33.5547C97.4586 33.9004 97.9918 34.3809 98.3668 34.9961C98.7418 35.6113 98.9791 36.3145 99.0787 37.1055H96.9166C96.8462 36.6602 96.7086 36.2617 96.5035 35.9102C96.3043 35.5586 96.0171 35.2832 95.6421 35.084C95.273 34.8789 94.7925 34.7764 94.2007 34.7764C93.691 34.7764 93.2427 34.873 92.856 35.0664C92.4693 35.2598 92.147 35.5439 91.8892 35.9189C91.6373 36.2939 91.4468 36.751 91.3179 37.29C91.189 37.8291 91.1246 38.4443 91.1246 39.1357V40.041C91.1246 40.7441 91.1978 41.3682 91.3443 41.9131C91.4966 42.458 91.7134 42.918 91.9947 43.293C92.2818 43.668 92.6304 43.9521 93.0406 44.1455C93.4507 44.333 93.9136 44.4268 94.4293 44.4268C94.9332 44.4268 95.3462 44.3857 95.6685 44.3037C95.9908 44.2158 96.2457 44.1133 96.4332 43.9961C96.6265 43.873 96.7759 43.7559 96.8814 43.6445V41.1045H94.2183V39.4609H99.0787ZM111.338 44.251V46H104.544V44.251H111.338ZM105.168 33.2031V46H102.962V33.2031H105.168ZM110.45 38.5469V40.2695H104.544V38.5469H110.45ZM111.294 33.2031V34.9609H104.544V33.2031H111.294Z" fill="#8E8E93"/>
<path d="M48.7422 59.5254H49.3867V63.7578H49.0215C47.1738 63.7578 45.5768 64.0443 44.2305 64.6172C42.8984 65.1901 41.8027 65.9779 40.9434 66.9805C40.084 67.9831 39.4395 69.1576 39.0098 70.5039C38.5944 71.8359 38.3867 73.2539 38.3867 74.7578V79.6777C38.3867 80.9238 38.5228 82.0267 38.7949 82.9863C39.0671 83.9316 39.4466 84.7266 39.9336 85.3711C40.4349 86.0013 41.0078 86.4811 41.6523 86.8105C42.2969 87.14 42.9915 87.3047 43.7363 87.3047C44.5098 87.3047 45.2116 87.1471 45.8418 86.832C46.472 86.5026 47.0091 86.0514 47.4531 85.4785C47.8971 84.9056 48.2337 84.2253 48.4629 83.4375C48.6921 82.6497 48.8066 81.7904 48.8066 80.8594C48.8066 79.9714 48.6921 79.1406 48.4629 78.3672C48.248 77.5794 47.9258 76.8919 47.4961 76.3047C47.0664 75.7031 46.5293 75.2376 45.8848 74.9082C45.2546 74.5645 44.5241 74.3926 43.6934 74.3926C42.6621 74.3926 41.724 74.6361 40.8789 75.123C40.0482 75.61 39.375 76.2474 38.8594 77.0352C38.3581 77.8086 38.0859 78.6322 38.043 79.5059L36.0664 78.8613C36.181 77.5293 36.4746 76.3333 36.9473 75.2734C37.4342 74.2135 38.0716 73.3112 38.8594 72.5664C39.6471 71.8216 40.5566 71.2559 41.5879 70.8691C42.6335 70.4681 43.7793 70.2676 45.0254 70.2676C46.5436 70.2676 47.8613 70.554 48.9785 71.127C50.0957 71.6999 51.0195 72.4805 51.75 73.4688C52.4948 74.4427 53.0462 75.5599 53.4043 76.8203C53.7767 78.0664 53.9629 79.3698 53.9629 80.7305C53.9629 82.2344 53.7337 83.638 53.2754 84.9414C52.8171 86.2305 52.1439 87.362 51.2559 88.3359C50.3822 89.3099 49.3151 90.069 48.0547 90.6133C46.8086 91.1576 45.3906 91.4297 43.8008 91.4297C42.125 91.4297 40.6283 91.1074 39.3105 90.4629C38.0072 89.8184 36.8971 88.9303 35.9805 87.7988C35.0781 86.6673 34.3906 85.3639 33.918 83.8887C33.4453 82.4134 33.209 80.8522 33.209 79.2051V77.0566C33.209 74.679 33.5098 72.4375 34.1113 70.332C34.7129 68.2122 35.6367 66.3431 36.8828 64.7246C38.1432 63.1061 39.7546 61.8385 41.7168 60.9219C43.679 59.9909 46.0208 59.5254 48.7422 59.5254ZM58.625 88.4219C58.625 87.6198 58.8971 86.9466 59.4414 86.4023C59.9857 85.8438 60.7233 85.5645 61.6543 85.5645C62.5996 85.5645 63.3372 85.8438 63.8672 86.4023C64.4115 86.9466 64.6836 87.6198 64.6836 88.4219C64.6836 89.224 64.4115 89.8971 63.8672 90.4414C63.3372 90.9857 62.5996 91.2578 61.6543 91.2578C60.7233 91.2578 59.9857 90.9857 59.4414 90.4414C58.8971 89.8971 58.625 89.224 58.625 88.4219ZM91.9043 79.8496V83.9746H69.3457L69.1738 80.8594L82.666 59.7188H86.8125L82.3223 67.4102L74.5664 79.8496H91.9043ZM87.9941 59.7188V91H82.8164V59.7188H87.9941Z" fill="#55B966"/>
<path d="M99.8849 73.7405V91.7405H97.7052V73.7405H99.8849ZM107.631 79.0608L102.1 84.9788L99.006 88.1897L98.8302 85.8811L101.045 83.2327L104.983 79.0608H107.631ZM105.651 91.7405L101.127 85.6936L102.252 83.76L108.205 91.7405H105.651ZM114.686 86.5842L118.072 74.678H119.713L118.764 79.3069L115.119 91.7405H113.49L114.686 86.5842ZM111.182 74.678L113.877 86.3499L114.686 91.7405H113.068L108.932 74.678H111.182ZM124.096 86.3381L126.733 74.678H128.994L124.869 91.7405H123.252L124.096 86.3381ZM119.959 74.678L123.252 86.5842L124.447 91.7405H122.818L119.303 79.3069L118.342 74.678H119.959Z" fill="#8E8E93"/>
<path d="M44.9329 122.5C44.6531 122.5 44.4372 122.276 44.4771 122.023L45.1968 117.444H42.3982C41.6946 117.444 42.1343 116.903 42.1503 116.881C43.1578 115.271 44.6691 112.887 46.668 109.709C46.748 109.579 46.9079 109.5 47.0678 109.5C47.3477 109.5 47.5636 109.724 47.5236 109.977L46.804 114.556H49.6105C49.9304 114.556 50.1063 114.693 49.9304 115.032C47.2997 119.178 45.7725 121.597 45.3327 122.291C45.2528 122.421 45.1008 122.5 44.9329 122.5Z" fill="#55B966"/>
<path d="M68.2197 118.317C68.2197 119.158 68.0248 119.866 67.6352 120.441C67.2455 121.017 66.7136 121.453 66.0395 121.75C65.3715 122.04 64.617 122.186 63.7758 122.186C62.9347 122.186 62.177 122.04 61.5029 121.75C60.8287 121.453 60.2968 121.017 59.9072 120.441C59.5175 119.866 59.3227 119.158 59.3227 118.317C59.3227 117.76 59.4309 117.256 59.6474 116.805C59.8639 116.347 60.17 115.954 60.5659 115.626C60.9679 115.292 61.4379 115.036 61.976 114.856C62.5203 114.677 63.114 114.587 63.7573 114.587C64.6108 114.587 65.3746 114.745 66.0488 115.061C66.7229 115.376 67.2517 115.812 67.6352 116.369C68.0248 116.925 68.2197 117.575 68.2197 118.317ZM65.9746 118.206C65.9746 117.754 65.8818 117.358 65.6962 117.018C65.5107 116.678 65.2509 116.415 64.9169 116.229C64.5829 116.044 64.1964 115.951 63.7573 115.951C63.312 115.951 62.9254 116.044 62.5976 116.229C62.2698 116.415 62.0131 116.678 61.8276 117.018C61.6482 117.358 61.5585 117.754 61.5585 118.206C61.5585 118.663 61.6482 119.059 61.8276 119.393C62.0069 119.721 62.2636 119.971 62.5976 120.145C62.9316 120.318 63.3243 120.404 63.7758 120.404C64.2273 120.404 64.617 120.318 64.9448 120.145C65.2726 119.971 65.5261 119.721 65.7055 119.393C65.8849 119.059 65.9746 118.663 65.9746 118.206ZM67.9135 112.045C67.9135 112.72 67.7342 113.319 67.3754 113.845C67.0229 114.371 66.5343 114.785 65.9096 115.088C65.2849 115.385 64.5737 115.534 63.7758 115.534C62.9718 115.534 62.2543 115.385 61.6235 115.088C60.9988 114.785 60.5071 114.371 60.1484 113.845C59.7958 113.319 59.6196 112.72 59.6196 112.045C59.6196 111.241 59.7958 110.564 60.1484 110.014C60.5071 109.457 60.9988 109.033 61.6235 108.743C62.2482 108.452 62.9625 108.307 63.7665 108.307C64.5706 108.307 65.2849 108.452 65.9096 108.743C66.5343 109.033 67.0229 109.457 67.3754 110.014C67.7342 110.564 67.9135 111.241 67.9135 112.045ZM65.6777 112.12C65.6777 111.718 65.5973 111.365 65.4365 111.062C65.2818 110.753 65.0623 110.512 64.7778 110.338C64.4933 110.165 64.1562 110.079 63.7665 110.079C63.3769 110.079 63.0398 110.162 62.7553 110.329C62.4708 110.496 62.2512 110.731 62.0966 111.034C61.942 111.337 61.8647 111.699 61.8647 112.12C61.8647 112.534 61.942 112.896 62.0966 113.205C62.2512 113.508 62.4708 113.746 62.7553 113.919C63.046 114.093 63.3862 114.179 63.7758 114.179C64.1655 114.179 64.5025 114.093 64.7871 113.919C65.0716 113.746 65.2911 113.508 65.4457 113.205C65.6004 112.896 65.6777 112.534 65.6777 112.12ZM70.5991 120.887C70.5991 120.54 70.7166 120.25 70.9517 120.015C71.1867 119.773 71.5052 119.653 71.9072 119.653C72.3154 119.653 72.634 119.773 72.8628 120.015C73.0978 120.25 73.2153 120.54 73.2153 120.887C73.2153 121.233 73.0978 121.524 72.8628 121.759C72.634 121.994 72.3154 122.111 71.9072 122.111C71.5052 122.111 71.1867 121.994 70.9517 121.759C70.7166 121.524 70.5991 121.233 70.5991 120.887ZM85.1597 117.185V118.966H75.4185L75.3443 117.621L81.1705 108.492H82.961L81.022 111.813L77.6729 117.185H85.1597ZM83.4712 108.492V122H81.2354V108.492H83.4712Z" fill="black"/>
<path d="M92.4875 107.75V122H90.2424V107.75H92.4875ZM98.7219 111.962L94.3523 116.805L91.9587 119.254L91.3742 117.361L93.1833 115.125L96.0222 111.962H98.7219ZM96.5046 122L93.2483 117.287L94.6584 115.719L99.093 122H96.5046ZM103.94 118.966L106.631 108.492H108.041L107.883 111.192L105.007 122H103.541L103.94 118.966ZM101.927 108.492L104.107 118.883L104.302 122H102.743L99.617 108.492H101.927ZM111.093 118.855L113.245 108.492H115.565L112.438 122H110.88L111.093 118.855ZM108.588 108.492L111.251 118.994L111.64 122H110.175L107.345 111.192L107.197 108.492H108.588Z" fill="#8E8E93"/>
<path d="M8.58336 105.994C6.50745 106.749 4.20186 105.681 3.55098 103.57C0.233581 92.8103 -0.779549 81.4559 0.596307 70.2505C2.13489 57.7197 6.61728 45.731 13.677 35.2646C20.7367 24.7981 30.1733 16.1511 41.2152 10.0304C52.2572 3.90978 64.5909 0.489335 77.208 0.0487339C89.8252 -0.391867 102.367 2.15989 113.809 7.49538C125.251 12.8309 135.268 20.7986 143.041 30.7471C150.813 40.6956 156.121 52.3424 158.53 64.7353C160.684 75.8175 160.466 87.2149 157.907 98.1799C157.405 100.331 155.179 101.557 153.056 100.948C150.932 100.34 149.716 98.1262 150.206 95.9721C152.424 86.2235 152.59 76.1045 150.677 66.2617C148.509 55.1082 143.732 44.626 136.737 35.6724C129.741 26.7187 120.726 19.5478 110.429 14.7458C100.131 9.9439 88.8427 7.64732 77.4872 8.04386C66.1318 8.4404 55.0314 11.5188 45.0937 17.0274C35.156 22.536 26.663 30.3183 20.3093 39.7381C13.9555 49.1579 9.9214 59.9478 8.53668 71.2254C7.3147 81.1776 8.1866 91.2604 11.0791 100.831C11.7182 102.945 10.6593 105.238 8.58336 105.994Z" fill="#F2F2F7"/>
<path d="M8.58336 105.994C6.50745 106.749 4.20188 105.681 3.551 103.57C0.58632 93.9543 -0.541206 83.8534 0.240813 73.7974C1.12634 62.4104 4.43982 51.345 9.95844 41.3454C15.477 31.3457 23.0728 22.6437 32.235 15.8244C41.3972 9.00513 51.9133 4.22674 63.0762 1.81058C74.2391 -0.605583 85.7899 -0.603502 96.952 1.81668C108.114 4.23687 118.628 9.01905 127.788 15.8416C136.948 22.6642 144.54 31.369 150.055 41.3706C154.926 50.2032 158.076 59.8663 159.353 69.8474C159.634 72.0387 157.976 73.9644 155.773 74.1348C153.571 74.3053 151.659 72.6557 151.366 70.466C150.185 61.6237 147.369 53.0658 143.05 45.2336C138.086 36.2321 131.253 28.3978 123.009 22.2575C114.766 16.1171 105.303 11.8132 95.2568 9.63502C85.211 7.45685 74.8152 7.45498 64.7686 9.62952C54.722 11.8041 45.2575 16.1046 37.0115 22.242C28.7656 28.3793 21.9293 36.2112 16.9626 45.2108C11.9958 54.2105 9.0137 64.1694 8.21673 74.4177C7.52328 83.3348 8.49818 92.2912 11.0791 100.831C11.7183 102.945 10.6593 105.238 8.58336 105.994Z" fill="#A2E0AC"/>
<path d="M8.58336 105.994C6.50745 106.749 4.20178 105.681 3.55087 103.57C-1.74031 86.4095 -1.1136 67.9232 5.40035 51.1055C12.397 33.0416 25.7104 18.13 42.8689 9.13898C60.0275 0.147912 79.8656 -2.31183 98.7005 2.21638C116.236 6.43219 131.793 16.4384 142.891 30.5559C144.256 32.2926 143.822 34.7963 142.02 36.0732C140.217 37.35 137.729 36.9155 136.354 35.1864C126.382 22.6463 112.482 13.7577 96.8304 9.99474C79.8791 5.91935 62.0248 8.13312 46.582 16.2251C31.1393 24.317 19.1573 37.7375 12.8603 53.9949C7.04615 69.0059 6.4434 85.494 11.0789 100.83C11.7181 102.945 10.6593 105.238 8.58336 105.994Z" fill="#55B966"/>
</svg>
