<svg width="24" height="24" viewBox="0 0 24 24" fill="none" xmlns="http://www.w3.org/2000/svg">
    <path fill-rule="evenodd" clip-rule="evenodd" d="M17.16 11.4a.376.376 0 0 1 .364-.32h2.081c.434 0 .786.372.786.83 0 .458-.351.829-.786.829h-1.091l-1.459 8.456a.376.376 0 0 1-.364.32h-9.99a.376.376 0 0 1-.365-.32L4.878 12.74H3.786c-.434 0-.786-.371-.786-.83 0-.457.352-.828.786-.828h2.082c.178 0 .331.134.364.32l.258 1.486c.561.097.925.317 1.223.498.36.216.704.324 1.043.329.338.004.697-.094 1.089-.33 1.27-.766 2.538-.694 3.694 0 .3.18.62.306.964.327.34.02.729-.06 1.171-.327h.001l.004-.002c.299-.18.662-.398 1.222-.495l.259-1.487zm-6.536 3.424c-1.14.686-2.41.774-3.691 0a8.512 8.512 0 0 0-.118-.071l.888 5.105h7.985l.889-5.106c-.04.022-.08.046-.122.072-1.13.679-2.395.78-3.695 0-.44-.265-.826-.346-1.165-.327-.343.019-.665.143-.97.327z" fill="#0CA9DA"/>
    <path d="M15.763 7.04c-.854-2.077-3.893-2.19-3.159-5.207.055-.224-.2-.397-.407-.28-1.974 1.09-3.392 3.272-2.202 6.132.098.235-.196.453-.408.3-.984-.696-1.087-1.699-1-2.417.033-.264-.337-.391-.495-.173-.37.53-.744 1.385-.744 2.672.206 2.85 2.778 3.725 3.702 3.837 1.32.158 2.75-.071 3.778-.951 1.13-.983 1.544-2.55.935-3.914z" fill="#0CA9DA"/>
</svg>
