<svg width="114" height="170" viewBox="0 0 114 170" fill="none" xmlns="http://www.w3.org/2000/svg">
<path d="M98.8531 18.6452H79.8342V11.379C79.8342 5.12056 74.7093 0 68.4455 0H45.6683C39.4046 0 34.2797 5.12056 34.2797 11.379V18.6452H15.2607C6.94705 18.6452 0.113881 25.4726 0.113881 33.7793L0 154.752C0 163.173 6.83317 170 15.2607 170H98.6254C107.053 170 113.886 163.173 113.886 154.866L114 33.7793C114 25.4726 107.167 18.6452 98.8531 18.6452Z" fill="#F2F2F7"/>
<path opacity="0.5" d="M7 34C7 29.5817 10.5817 26 15 26H99C103.418 26 107 29.5817 107 34V154C107 158.418 103.418 162 99 162H15C10.5817 162 7 158.418 7 154V34Z" fill="#C7C7CC"/>
</svg>
