<svg width="22" height="22" viewBox="0 0 22 22" fill="none" xmlns="http://www.w3.org/2000/svg">
    <path fill-rule="evenodd" clip-rule="evenodd" d="M8.762 19.108a.56.56 0 0 0 1.04.36 6843.807 6843.807 0 0 1 2.879-5.036l4.868 4.868 1.415-1.414-5.253-5.253 1.681-2.936c.214-.457 0-.641-.388-.641H11.59l.875-6.164a.56.56 0 0 0-1.04-.36 4137.461 4137.461 0 0 1-2.836 4.98L4.114 3.038 2.7 4.451l4.864 4.864a997.378 997.378 0 0 0-1.635 2.876c-.047.068-.524.753.305.753h3.403l-.875 6.164zM7.564 9.315l5.117 5.117 1.03-1.799-5.12-5.12-.12.21-.907 1.592z" fill="#8E8E93"/>
</svg>
