<svg width="40" height="40" viewBox="0 0 40 40" fill="none" xmlns="http://www.w3.org/2000/svg">
    <circle cx="20" cy="20" r="20" fill="#000"/>
    <path d="M15.333 29.945c-.916 0-1.666-.75-1.666-1.666 0-.917.75-1.667 1.666-1.667.917 0 1.667.75 1.667 1.667 0 .916-.75 1.666-1.667 1.666zm0-5c-.916 0-1.666-.75-1.666-1.666 0-.917.75-1.667 1.666-1.667.917 0 1.667.75 1.667 1.667 0 .916-.75 1.666-1.667 1.666zm5 5c-.916 0-1.666-.75-1.666-1.666 0-.917.75-1.667 1.666-1.667.917 0 1.667.75 1.667 1.667 0 .916-.75 1.666-1.667 1.666zm0-5c-.916 0-1.666-.75-1.666-1.666 0-.917.75-1.667 1.666-1.667.917 0 1.667.75 1.667 1.667 0 .916-.75 1.666-1.667 1.666zm5 5c-.916 0-1.666-.75-1.666-1.666 0-.917.75-1.667 1.666-1.667.917 0 1.667.75 1.667 1.667 0 .916-.75 1.666-1.667 1.666zm0-5c-.916 0-1.666-.75-1.666-1.666 0-.917.75-1.667 1.666-1.667.917 0 1.667.75 1.667 1.667 0 .916-.75 1.666-1.667 1.666zM12 18.28c0-4.6 3.733-8.334 8.333-8.334s8.334 3.734 8.334 8.334c0 .916-.75 1.666-1.667 1.666H13.667c-.917 0-1.667-.75-1.667-1.666z" fill="#fff"/>
</svg>
