<svg width="30" height="30" viewBox="0 0 30 30" fill="none" xmlns="http://www.w3.org/2000/svg">
    <path d="M26.25 17.5c0-.688-.563-1.25-1.25-1.25h-2.5v2.5H25c.688 0 1.25-.563 1.25-1.25zM25 21.25h-2.5v2.5H25c.688 0 1.25-.563 1.25-1.25 0-.688-.563-1.25-1.25-1.25zM20 15h-2.5a2.507 2.507 0 0 0-2.5 2.5h-1.25c-.688 0-1.25.563-1.25 1.25v2.5c0 .688.563 1.25 1.25 1.25H15c0 1.375 1.125 2.5 2.5 2.5H20c.688 0 1.25-.563 1.25-1.25v-7.5c0-.688-.563-1.25-1.25-1.25zM6.25 16.25c0-1.375 1.125-2.5 2.5-2.5h1.875A4.38 4.38 0 0 0 15 9.375 4.38 4.38 0 0 0 10.625 5H6.25C5.562 5 5 5.563 5 6.25c0 .688.563 1.25 1.25 1.25h4.375c1.037 0 1.875.838 1.875 1.875a1.872 1.872 0 0 1-1.875 1.875H8.75c-2.763 0-5 2.238-5 5s2.237 5 5 5h2.5v-2.5h-2.5a2.507 2.507 0 0 1-2.5-2.5z" fill="#fff"/>
</svg>
