<svg width="30" height="30" viewBox="0 0 30 30" fill="none" xmlns="http://www.w3.org/2000/svg">
    <path d="m28.264 15.013-3.105-2.172a5.483 5.483 0 0 1-.96-.909l-4.075-5.149c-.232-.293-.706-.533-1.054-.533H2.727c-.347 0-.655.32-.682.713l-.793 11.34c-.027.392.224.801.558.91l1.897.614c.198.064.473.119.738.155 0 .028-.007.054-.007.082 0 1.345.965 2.436 2.155 2.436s2.154-1.09 2.154-2.436c0-.014-.003-.026-.003-.04H20.755c0 .014-.004.026-.004.04 0 1.345.965 2.436 2.155 2.436s2.155-1.09 2.155-2.436c0-.014-.004-.026-.004-.04h2.76c.348 0 .657-.32.687-.712l.243-3.211c.03-.391-.187-.881-.483-1.088zm-10.883-3.73-1.14-2.176c-.177-.338-.038-.615.31-.615h2.193c.348 0 .822.24 1.053.534l1.837 2.337c.231.294.136.534-.212.534h-3.086c-.348 0-.778-.276-.955-.614z" fill="#fff"/>
</svg>
