<svg width="32" height="32" viewBox="0 0 32 32" fill="none" xmlns="http://www.w3.org/2000/svg">
    <g clipPath="url(#d518p85toa)">
        <path d="m25.645 17.283-.013.026c.052-.428.104-.868.104-1.309 0-.44-.04-.856-.091-1.283l.013.025 3.163-2.488-3.15-5.47-3.72 1.503.012.013a9.939 9.939 0 0 0-2.216-1.296h.013l-.597-3.967H12.85l-.57 3.98h.013a9.939 9.939 0 0 0-2.217 1.296l.013-.013-3.733-1.517-3.163 5.47 3.163 2.49.013-.026c-.052.427-.09.842-.09 1.283 0 .44.038.881.103 1.31l-.013-.027-2.722 2.14-.428.336 3.15 5.445 3.733-1.491-.026-.052a9.683 9.683 0 0 0 2.243 1.31h-.039l.584 3.992h6.287s.038-.233.077-.544l.493-3.436h-.013a9.957 9.957 0 0 0 2.243-1.309l-.026.052 3.733 1.49 3.15-5.444s-.181-.155-.428-.337l-2.735-2.152zM16 20.537A4.542 4.542 0 0 1 11.463 16 4.542 4.542 0 0 1 16 11.463 4.542 4.542 0 0 1 20.538 16 4.542 4.542 0 0 1 16 20.537z" fill="#404045"/>
    </g>
    <defs>
        <clipPath id="d518p85toa">
            <path fill="#fff" transform="translate(.445 .444)" d="M0 0h31.111v31.111H0z"/>
        </clipPath>
    </defs>
</svg>
