<svg width="30" height="30" viewBox="0 0 30 30" fill="none" xmlns="http://www.w3.org/2000/svg">
    <path d="M4.163 20h9.587v-3.75H7a2.489 2.489 0 0 0-2.437 1.962L4.163 20zM16.25 20h9.587l-.4-1.788A2.51 2.51 0 0 0 23 16.25h-6.75V20zM26.387 22.5H16.25v5h8.137c1.6 0 2.788-1.475 2.438-3.038l-.438-1.962zM5.613 27.5h8.137v-5H3.613l-.438 1.962A2.492 2.492 0 0 0 5.613 27.5zM15 10c-.688 0-1.25.563-1.25 1.25v1.25c0 .688.563 1.25 1.25 1.25.688 0 1.25-.563 1.25-1.25v-1.25c0-.688-.563-1.25-1.25-1.25zM23.238 10.775a1.245 1.245 0 0 0 0-1.763l-.888-.887a1.245 1.245 0 0 0-1.763 0 1.245 1.245 0 0 0 0 1.762l.888.888a1.245 1.245 0 0 0 1.762 0zM8.525 10.775l.888-.888a1.245 1.245 0 0 0 0-1.762 1.245 1.245 0 0 0-1.763 0L6.763 9a1.245 1.245 0 0 0 0 1.762c.487.5 1.275.5 1.762.013zM6.25 2.5H5c-.688 0-1.25.563-1.25 1.25C3.75 4.438 4.313 5 5 5h1.25c.688 0 1.25-.563 1.25-1.25 0-.688-.563-1.25-1.25-1.25zM25 2.5h-1.25c-.688 0-1.25.563-1.25 1.25 0 .688.563 1.25 1.25 1.25H25c.688 0 1.25-.563 1.25-1.25 0-.688-.563-1.25-1.25-1.25zM15 8.75c3.45 0 6.25-2.8 6.25-6.25H8.75c0 3.45 2.8 6.25 6.25 6.25z" fill="#fff"/>
</svg>
