<svg width="41" height="40" viewBox="0 0 41 40" fill="none" xmlns="http://www.w3.org/2000/svg">
    <path fill-rule="evenodd" clip-rule="evenodd" d="M30.723 18.946a.72.72 0 0 1 .698-.613h3.99c.832 0 1.506.71 1.506 1.589 0 .878-.674 1.589-1.507 1.589h-2.092l-2.795 16.208a.72.72 0 0 1-.698.614H10.676a.72.72 0 0 1-.698-.614L7.183 21.511H5.09c-.833 0-1.507-.711-1.507-1.59 0-.877.674-1.588 1.507-1.588h3.99a.72.72 0 0 1 .697.613l.496 2.849c1.075.186 1.771.608 2.344.954.69.415 1.348.622 1.998.63.648.01 1.336-.178 2.087-.63 2.436-1.47 4.866-1.332 7.08-.002h.002c.574.347 1.187.587 1.847.627.652.04 1.396-.114 2.245-.626l.001-.001.007-.004c.573-.344 1.27-.763 2.342-.948l.496-2.85zm-12.525 6.562c-2.185 1.314-4.621 1.483-7.076-.002a19.948 19.948 0 0 0-.226-.135l1.702 9.784h15.305l1.703-9.786c-.075.043-.152.09-.233.139-2.167 1.3-4.59 1.496-7.083 0-.843-.508-1.582-.664-2.233-.628-.657.037-1.274.274-1.86.628z" fill="#D1D1D6"/>
    <path d="M28.047 10.587c-1.636-3.98-7.46-4.194-6.054-9.978.104-.43-.385-.761-.781-.537-3.782 2.088-6.502 6.272-4.22 11.754.188.448-.375.868-.781.575-1.886-1.336-2.084-3.258-1.917-4.633.062-.507-.646-.751-.949-.332-.708 1.015-1.427 2.653-1.427 5.121.396 5.462 5.324 7.14 7.095 7.354 2.532.303 5.272-.136 7.242-1.824 2.167-1.882 2.959-4.886 1.792-7.5z" fill="#D1D1D6"/>
</svg>
