<svg width="40" height="40" viewBox="0 0 40 40" fill="none" xmlns="http://www.w3.org/2000/svg">
    <path fill-rule="evenodd" clip-rule="evenodd" d="M6.666 23c0-5.534 4.45-12.084 13.333-19.667C28.883 10.916 33.333 17.466 33.333 23c0 8.3-6.334 13.666-13.334 13.666S6.666 31.3 6.666 23zm8.704-3.035-.537.498a1.945 1.945 0 0 1-1.308.5 1.947 1.947 0 0 1-1.312-.491 1.621 1.621 0 0 1-.547-1.194c-.002-.448.192-.88.538-1.197l3.166-2.916 1.417-1.31 1.833-1.69c.19-.174.422-.307.676-.389.2-.075.414-.112.63-.11l.092.002c.19.007.379.043.556.108.25.08.478.21.667.38l1.98 1.792 1.408 1.268 3.157 2.856c.348.316.545.746.547 1.194a1.62 1.62 0 0 1-.537 1.198 1.947 1.947 0 0 1-1.308.498 1.95 1.95 0 0 1-1.312-.49l-.547-.49-1.389-1.26-1.388-1.25v12.504c0 .448-.195.878-.543 1.195a1.945 1.945 0 0 1-1.31.495c-.49 0-.961-.178-1.308-.495a1.619 1.619 0 0 1-.543-1.195V17.404L16.76 18.69l-1.389 1.276zm4.648-8.297z" fill="#fff"/>
</svg>
