<svg width="24" height="24" viewBox="0 0 24 24" fill="none" xmlns="http://www.w3.org/2000/svg">
    <path opacity=".3" d="M2.922 9.07C5.512 7.08 8.672 6 12.002 6s6.49 1.08 9.08 3.07l-2.85 2.86a10.945 10.945 0 0 0-6.23-1.93c-2.31 0-4.46.71-6.23 1.93l-2.85-2.86z" fill="#000"/>
    <path d="M12 4C7.31 4 3.07 5.9 0 8.98L12 21 24 8.98A16.88 16.88 0 0 0 12 4zM2.92 9.07C5.51 7.08 8.67 6 12 6s6.49 1.08 9.08 3.07l-2.85 2.86A10.945 10.945 0 0 0 12 10c-2.31 0-4.46.71-6.23 1.93L2.92 9.07z" fill="#000"/>
</svg>
