<svg width="184" height="184" viewBox="0 0 184 184" fill="none" xmlns="http://www.w3.org/2000/svg">
    <path d="M92 184c50.81 0 92-41.19 92-92S142.81 0 92 0 0 41.19 0 92s41.19 92 92 92z" fill="#000"/>
    <path d="M142.185 42.32H41.822c-4.6 0-8.364 3.763-8.364 8.363v112.323c15.891 13.131 36.298 20.993 58.546 20.993 22.247 0 42.654-7.862 58.545-20.993V50.683a8.335 8.335 0 0 0-8.364-8.364z" fill="#E5E5EA"/>
    <path d="m70.626 88.283 43.677 46.464m0-46.464-43.677 46.464" stroke="#C8102E" stroke-width="20"/>
    <path d="M142.182 33.955H41.818c-9.2 0-16.727 7.527-16.727 16.727v104.462a92.895 92.895 0 0 0 8.364 7.861V50.682c0-4.6 3.763-8.364 8.363-8.364H66.91v.837c0 3.68 3.011 6.69 6.691 6.69h36.8c3.68 0 6.691-3.01 6.691-6.69v-.837h25.091c4.6 0 8.363 3.764 8.363 8.364v112.323c2.928-2.425 5.771-5.018 8.364-7.861V50.682c0-9.284-7.527-16.727-16.727-16.727z" fill="#48484A"/>
</svg>
