<svg width="32" height="32" viewBox="0 0 32 32" fill="none" xmlns="http://www.w3.org/2000/svg">
    <rect width="32" height="32" rx="4" fill="#F15F31"/>
    <g clipPath="url(#3zkt0jve8a)">
        <path d="M19.196 17.067V8.534c0-1.77-1.43-3.2-3.2-3.2-1.77 0-3.2 1.43-3.2 3.2v8.533a5.344 5.344 0 0 0-2.133 4.267 5.335 5.335 0 0 0 5.333 5.333 5.335 5.335 0 0 0 5.333-5.333 5.344 5.344 0 0 0-2.133-4.267zm-2.133-2.133h-2.134v-6.4c0-.587.48-1.067 1.067-1.067s1.067.48 1.067 1.067h-.534a.528.528 0 0 0-.533.533c0 .299.235.534.533.534h.534v2.133h-.534a.528.528 0 0 0-.533.533c0 .299.235.534.533.534h.534v2.133z" fill="#fff"/>
    </g>
    <defs>
        <clipPath id="3zkt0jve8a">
            <path fill="#fff" transform="translate(3.2 3.2)" d="M0 0h25.6v25.6H0z"/>
        </clipPath>
    </defs>
</svg>
