<svg width="32" height="32" viewBox="0 0 32 32" fill="none" xmlns="http://www.w3.org/2000/svg">
    <rect width="32" height="32" rx="4" fill="#55B966"/>
    <g clipPath="url(#l0ot9m3noa)" fill="#fff">
        <path d="M6.398 16c0 2.357.971 4.48 2.518 6.016l-1.61 1.61a.533.533 0 0 0 .383.907h4.576a.528.528 0 0 0 .533-.533v-4.576a.528.528 0 0 0-.906-.373l-1.483 1.482C9.257 19.36 8.532 17.771 8.532 16a6.393 6.393 0 0 1 3.658-5.781c.363-.171.608-.502.608-.896V9.12c0-.725-.757-1.184-1.408-.875A8.524 8.524 0 0 0 6.398 16zm17.91-8.533h-4.576a.528.528 0 0 0-.534.533v4.576c0 .48.576.715.907.373l1.483-1.482c1.152 1.173 1.877 2.762 1.877 4.533a6.393 6.393 0 0 1-3.659 5.781c-.362.171-.608.502-.608.896v.192c0 .726.758 1.184 1.408.875A8.497 8.497 0 0 0 25.598 16c0-2.357-.97-4.48-2.517-6.016l1.61-1.61a.533.533 0 0 0-.383-.907z"/>
        <path fill-rule="evenodd" clip-rule="evenodd" d="m14.754 17.956-.64 4.977h1.573l.149-.29.235-.46.706-1.379a4845.26 4845.26 0 0 1 2.834-5.513l.01-.018.05-.122a.792.792 0 0 0-.04-.707c-.159-.276-.45-.4-.75-.4h-1.634l.64-4.977h-1.573l-.148.29c-.675 1.319-1.28 2.502-1.819 3.552-.759 1.483-1.381 2.698-1.865 3.647l-.007.012-.006.011-.008.016-.06.118c-.043.086-.086.19-.11.303a.813.813 0 0 0 .018.434c.142.416.546.506.811.506h1.634zm-.397-3.895.465-.908.205-.4-.205.4-.465.908zm-1.196 2.337-.002.005zm-.22.429z"/>
    </g>
    <defs>
        <clipPath id="l0ot9m3noa">
            <path fill="#fff" transform="translate(3.2 3.2)" d="M0 0h25.6v25.6H0z"/>
        </clipPath>
    </defs>
</svg>
