<svg width="33" height="32" viewBox="0 0 33 32" fill="none" xmlns="http://www.w3.org/2000/svg">
    <path d="M16.476 14.4a1.596 1.596 0 0 0-1.598 1.6 1.602 1.602 0 0 0 1.598 1.6 1.597 1.597 0 0 0 1.598-1.6 1.601 1.601 0 0 0-1.598-1.6zM17.275 0c7.19 0 7.365 5.712 3.594 7.6-1.581.784-2.284 2.464-2.588 3.952.767.32 1.438.816 1.95 1.456C26.14 9.808 32.5 11.072 32.5 16.8c0 7.2-5.703 7.36-7.589 3.568-.798-1.584-2.492-2.288-3.978-2.592a5.188 5.188 0 0 1-1.453 1.968C22.659 25.648 21.397 32 15.677 32c-7.189 0-7.333-5.728-3.562-7.616 1.565-.784 2.268-2.448 2.588-3.92a4.926 4.926 0 0 1-1.981-1.472C6.827 22.16.5 20.912.5 15.2c0-7.2 5.687-7.376 7.573-3.584.798 1.584 2.476 2.272 3.962 2.576a4.659 4.659 0 0 1 1.47-1.952C10.325 6.336 11.587 0 17.274 0z" fill="#0CA9DA"/>
</svg>
