<svg width="33" height="32" viewBox="0 0 33 32" fill="none" xmlns="http://www.w3.org/2000/svg">
    <g clipPath="url(#fm26uxhh7a)">
        <path fill-rule="evenodd" clip-rule="evenodd" d="M20.5 6.667v10.667a6.68 6.68 0 0 1 2.666 5.333 6.67 6.67 0 0 1-6.666 6.667 6.67 6.67 0 0 1-6.667-6.667 6.68 6.68 0 0 1 2.667-5.333V6.667c0-2.213 1.786-4 4-4 2.213 0 4 1.787 4 4zm-5.334 0v4h2.667V8h-.667a.66.66 0 0 1-.666-.666.66.66 0 0 1 .666-.667h.667c0-.733-.6-1.333-1.333-1.333-.734 0-1.334.6-1.334 1.333zm3.585 13.135c.586.507 1.188 1.026 1.49 1.845.56 1.394.18 2.996-.86 4-.945.9-2.26 1.134-3.476.973a4.114 4.114 0 0 1-3.405-3.923c0-1.316.345-2.19.685-2.73.145-.224.485-.094.455.176-.08.734.015 1.758.92 2.471.195.156.465-.067.375-.307-1.095-2.923.21-5.155 2.026-6.268.19-.12.425.057.375.286-.415 1.896.48 2.67 1.415 3.477z" fill="#F15F31"/>
    </g>
    <defs>
        <clipPath id="fm26uxhh7a">
            <path fill="#fff" transform="translate(.5)" d="M0 0h32v32H0z"/>
        </clipPath>
    </defs>
</svg>
