<svg width="33" height="32" viewBox="0 0 33 32" fill="none" xmlns="http://www.w3.org/2000/svg">
    <g clipPath="url(#4dsme9pg6a)">
        <path d="M28.5 14.667h-4.226l3.386-3.387c.52-.52.52-1.36 0-1.88a1.344 1.344 0 0 0-1.893 0L20.5 14.667h-2.666V12L23.1 6.734c.52-.52.52-1.374 0-1.894-.52-.52-1.36-.52-1.88 0l-3.386 3.387V4c0-.733-.6-1.333-1.334-1.333-.733 0-1.333.6-1.333 1.333v4.227L11.78 4.84c-.52-.52-1.36-.52-1.88 0-.52.52-.52 1.374 0 1.894L15.167 12v2.667H12.5L7.234 9.4a1.344 1.344 0 0 0-1.894 0c-.52.52-.52 1.36 0 1.88l3.387 3.387H4.5c-.733 0-1.333.6-1.333 1.333 0 .734.6 1.334 1.333 1.334h4.227L5.34 20.72c-.52.52-.52 1.36 0 1.88.52.52 1.374.52 1.894 0l5.266-5.266h2.667V20L9.9 25.267c-.52.52-.52 1.373 0 1.893s1.36.52 1.88 0l3.387-3.386V28c0 .734.6 1.334 1.333 1.334.734 0 1.334-.6 1.334-1.334v-4.226l3.386 3.386c.52.52 1.36.52 1.88 0 .52-.52.52-1.373 0-1.893L17.834 20v-2.666H20.5l5.267 5.266c.52.52 1.373.52 1.893 0s.52-1.36 0-1.88l-3.386-3.386H28.5c.734 0 1.334-.6 1.334-1.334 0-.733-.6-1.333-1.334-1.333z" fill="#0CA9DA"/>
    </g>
    <defs>
        <clipPath id="4dsme9pg6a">
            <path fill="#fff" transform="translate(.5)" d="M0 0h32v32H0z"/>
        </clipPath>
    </defs>
</svg>
