<svg width="33" height="32" viewBox="0 0 33 32" fill="none" xmlns="http://www.w3.org/2000/svg">
<path d="M16.476 14.4C16.0523 14.4 15.646 14.5686 15.3464 14.8686C15.0468 15.1687 14.8784 15.5757 14.8784 16C14.8784 16.4243 15.0468 16.8313 15.3464 17.1314C15.646 17.4314 16.0523 17.6 16.476 17.6C16.8997 17.6 17.3061 17.4314 17.6057 17.1314C17.9053 16.8313 18.0736 16.4243 18.0736 16C18.0736 15.5757 17.9053 15.1687 17.6057 14.8686C17.3061 14.5686 16.8997 14.4 16.476 14.4ZM17.2748 0C24.4641 0 24.6398 5.712 20.8694 7.6C19.2878 8.384 18.5849 10.064 18.2813 11.552C19.0482 11.872 19.7192 12.368 20.2304 13.008C26.1415 9.808 32.5 11.072 32.5 16.8C32.5 24 26.7966 24.16 24.9114 20.368C24.1126 18.784 22.4191 18.08 20.9333 17.776C20.6138 18.544 20.1186 19.2 19.4795 19.744C22.6588 25.648 21.3967 32 15.6772 32C8.48802 32 8.34423 26.272 12.1146 24.384C13.6802 23.6 14.3832 21.936 14.7027 20.464C13.9199 20.144 13.2329 19.632 12.7217 18.992C6.82651 22.16 0.5 20.912 0.5 15.2C0.5 8 6.18747 7.824 8.07264 11.616C8.87144 13.2 10.5489 13.888 12.0347 14.192C12.3382 13.424 12.8495 12.752 13.5045 12.24C10.3253 6.336 11.5874 0 17.2748 0Z" fill="#D1D1D6"/>
</svg>
