<svg width="28" height="28" viewBox="0 0 28 28" fill="none" xmlns="http://www.w3.org/2000/svg">
    <g clipPath="url(#dl08vhy1ba)" fill="#fff">
        <path d="M5.249 14a2.917 2.917 0 1 0 0-5.834 2.917 2.917 0 0 0 0 5.833zM10.499 9.333a2.917 2.917 0 1 0 0-5.833 2.917 2.917 0 0 0 0 5.833zM17.499 9.333a2.917 2.917 0 1 0 0-5.833 2.917 2.917 0 0 0 0 5.833zM22.749 14a2.917 2.917 0 1 0 0-5.834 2.917 2.917 0 0 0 0 5.833zM20.231 17.337c-1.015-1.19-1.867-2.205-2.893-3.395-.537-.63-1.225-1.26-2.042-1.54a2.358 2.358 0 0 0-.385-.105c-.292-.047-.607-.047-.91-.047-.303 0-.618 0-.922.058a2.376 2.376 0 0 0-.385.105c-.816.28-1.493.91-2.041 1.54-1.015 1.19-1.867 2.205-2.894 3.395-1.528 1.529-3.406 3.22-3.056 5.589.338 1.19 1.19 2.368 2.718 2.706.852.175 3.57-.513 6.463-.513h.21c2.894 0 5.612.677 6.464.513 1.528-.338 2.38-1.528 2.718-2.706.362-2.38-1.517-4.072-3.045-5.6z"/>
    </g>
    <defs>
        <clipPath id="dl08vhy1ba">
            <path fill="#fff" d="M0 0h28v28H0z"/>
        </clipPath>
    </defs>
</svg>
