<svg width="40" height="40" viewBox="0 0 40 40" fill="none" xmlns="http://www.w3.org/2000/svg">
    <path d="M19.97 18a1.996 1.996 0 0 0-1.997 2 2.002 2.002 0 0 0 1.997 2 1.995 1.995 0 0 0 1.997-2 2.002 2.002 0 0 0-1.997-2zm.998-18c8.987 0 9.207 7.14 4.494 9.5-1.977.98-2.856 3.08-3.235 4.94a6.12 6.12 0 0 1 2.436 1.82C32.052 12.26 40 13.84 40 21c0 9-7.13 9.2-9.486 4.46-.998-1.98-3.115-2.86-4.972-3.24-.4.96-1.019 1.78-1.818 2.46C27.698 32.06 26.121 40 18.971 40c-8.986 0-9.166-7.16-4.453-9.52 1.957-.98 2.836-3.06 3.235-4.9a6.157 6.157 0 0 1-2.476-1.84C7.908 27.7 0 26.14 0 19c0-9 7.11-9.22 9.466-4.48.998 1.98 3.095 2.84 4.952 3.22.38-.96 1.019-1.8 1.838-2.44C12.282 7.92 13.859 0 20.968 0z" fill="#4C85A9"/>
</svg>
