<svg width="24" height="24" viewBox="0 0 24 24" fill="none" xmlns="http://www.w3.org/2000/svg">
    <path d="M4 21V9l8-6 8 6v12H4zm2-11v8c.85-.633 1.78-1.125 2.788-1.475A9.723 9.723 0 0 1 12 16c1.133 0 2.204.175 3.213.525A10.28 10.28 0 0 1 18 18v-8l-6-4.5L6 10zm6 5a2.893 2.893 0 0 1-2.125-.875A2.893 2.893 0 0 1 9 12c0-.833.292-1.542.875-2.125A2.893 2.893 0 0 1 12 9c.833 0 1.542.292 2.125.875S15 11.167 15 12s-.292 1.542-.875 2.125A2.893 2.893 0 0 1 12 15zm0-2a.968.968 0 0 0 .713-.288A.967.967 0 0 0 13 12a.97.97 0 0 0-.287-.713A.97.97 0 0 0 12 11a.967.967 0 0 0-.712.287A.968.968 0 0 0 11 12c0 .283.096.52.288.712A.965.965 0 0 0 12 13zm-3.85 6h7.7a7.483 7.483 0 0 0-1.837-.75A7.978 7.978 0 0 0 12 18c-.7 0-1.37.083-2.012.25A7.479 7.479 0 0 0 8.15 19z" fill="#8E8E93"/>
</svg>
