<svg width="72" height="72" viewBox="0 0 72 72" fill="none" xmlns="http://www.w3.org/2000/svg">
    <rect width="72" height="72" rx="8" fill="#F15F31"/>
    <g clipPath="url(#okxmixnkna)">
        <path d="M33.599 28.2v8.832c0 .84.456 1.632 1.176 2.064l7.488 4.44a1.818 1.818 0 0 0 2.472-.624c.504-.864.24-1.968-.624-2.472l-6.888-4.104v-8.16a1.846 1.846 0 0 0-1.824-1.776c-.984 0-1.8.816-1.8 1.8zm24 1.8V17.304c0-1.08-1.296-1.608-2.04-.84l-4.272 4.272c-4.344-4.344-10.536-6.84-17.304-6.24-10.056.912-18.336 9-19.44 19.056C13.103 46.56 23.255 57.6 35.999 57.6c11.016 0 20.112-8.256 21.432-18.912A2.41 2.41 0 0 0 55.03 36c-1.2 0-2.208.888-2.352 2.064-1.032 8.376-8.256 14.856-16.92 14.736-8.904-.12-16.416-7.632-16.56-16.56-.144-9.36 7.464-17.04 16.8-17.04 4.632 0 8.832 1.896 11.88 4.92l-5.016 5.016c-.768.768-.24 2.064.84 2.064h12.696c.672 0 1.2-.528 1.2-1.2z" fill="#fff"/>
    </g>
    <defs>
        <clipPath id="okxmixnkna">
            <path fill="#fff" transform="translate(7.2 7.2)" d="M0 0h57.6v57.6H0z"/>
        </clipPath>
    </defs>
</svg>
