<svg width="24" height="24" viewBox="0 0 24 24" fill="none" xmlns="http://www.w3.org/2000/svg">
<rect width="24" height="24" fill="white"/>
<path d="M4.44141 20.295C4.44141 20.7295 4.78213 21.0709 5.21579 21.0709C5.64944 21.0709 5.99017 20.7295 5.99017 20.295V15.1737H4.44141V20.295Z" fill="black"/>
<path d="M17.761 20.295C17.761 20.7295 18.1017 21.0709 18.5354 21.0709C18.969 21.0709 19.3097 20.7295 19.3097 20.295V15.1737H17.761V20.295Z" fill="black"/>
<path d="M4.44136 14.2425C5.80427 14.2425 6.91938 13.1252 6.91938 11.7595C6.91938 13.1252 8.03448 14.2425 9.3974 14.2425C10.7603 14.2425 11.8754 13.1252 11.8754 11.7595C11.8754 13.1252 12.9905 14.2425 14.3534 14.2425C15.7163 14.2425 16.8315 13.1252 16.8315 11.7595C16.8315 13.1252 17.9466 14.2425 19.3095 14.2425C19.929 14.2425 20.4865 14.0253 20.8892 13.6528C21.5707 13.0631 21.8494 12.1319 21.6636 11.2629L21.4777 10.2076L20.2387 4H3.5121L2.27309 10.2076L2.05626 11.2629C1.87041 12.1319 2.14919 13.0941 2.83064 13.6528C3.2643 14.0253 3.82185 14.2425 4.44136 14.2425Z" fill="black"/>
</svg>
