<svg width="41" height="41" viewBox="0 0 41 41" fill="none" xmlns="http://www.w3.org/2000/svg">
    <path d="M10.68 33.702c0 .86.733 1.535 1.666 1.535.934 0 1.667-.675 1.667-1.535V23.57H10.68v10.132zM27.348 33.702c0 .86.733 1.535 1.666 1.535.934 0 1.667-.675 1.667-1.535V23.57h-3.333v10.132zM9.394 21.905c2.073 0 3.77-1.818 3.77-4.04 0 2.222 1.696 4.04 3.77 4.04 2.073 0 3.77-1.818 3.77-4.04 0 2.222 1.696 4.04 3.77 4.04 2.073 0 3.769-1.818 3.769-4.04 0 2.222 1.696 4.04 3.77 4.04.942 0 1.79-.354 2.403-.96 1.037-.96 1.46-2.474 1.178-3.889l-.283-1.717-1.298-10.1H7.346l-1.25 10.1-.33 1.717c-.283 1.415.14 2.98 1.177 3.89.66.605 1.508.959 2.45.959z" fill="#0BBFBF"/>
</svg>
