<svg width="40" height="40" viewBox="0 0 40 40" fill="none" xmlns="http://www.w3.org/2000/svg">
    <path d="M10 33.466c0 .86.733 1.535 1.667 1.535.933 0 1.666-.676 1.666-1.535V23.334H10v10.132zM26.667 33.466c0 .86.733 1.535 1.666 1.535.934 0 1.667-.676 1.667-1.535V23.334h-3.333v10.132zM8.714 21.667c2.073 0 3.77-1.819 3.77-4.04 0 2.222 1.696 4.04 3.77 4.04 2.073 0 3.77-1.819 3.77-4.04 0 2.222 1.696 4.04 3.77 4.04 2.073 0 3.77-1.819 3.77-4.04 0 2.222 1.696 4.04 3.77 4.04.942 0 1.79-.354 2.402-.96 1.037-.96 1.461-2.475 1.178-3.889l-.282-1.717L33.333 5H6.667L5.415 15.101l-.33 1.717c-.282 1.414.142 2.98 1.179 3.89.66.605 1.508.959 2.45.959z" fill="#0BBFBF"/>
</svg>
