<svg width="40" height="40" viewBox="0 0 40 40" fill="none" xmlns="http://www.w3.org/2000/svg">
    <g clipPath="url(#quw1hlm7va)">
        <path d="M15 35c0 .834.667 1.667 1.667 1.667h6.666c1 0 1.667-.833 1.667-1.666v-1.667H15v1.667zm5-31.666c-6.5 0-11.667 5.167-11.667 11.667 0 4 2 7.5 5 9.5v3.833c0 .833.667 1.667 1.667 1.667h10c1 0 1.667-.834 1.667-1.667v-3.833c3-2.167 5-5.667 5-9.5C31.667 8.5 26.5 3.334 20 3.334z" fill="#FFC20F"/>
    </g>
    <defs>
        <clipPath id="quw1hlm7va">
            <path fill="#fff" d="M0 0h40v40H0z"/>
        </clipPath>
    </defs>
</svg>
