<svg width="58" height="58" viewBox="0 0 58 58" fill="none" xmlns="http://www.w3.org/2000/svg">
    <path d="M14.598 48.39c0 1.237 1.056 2.21 2.4 2.21 1.344 0 2.4-.973 2.4-2.21V33.8h-4.8v14.59zM38.598 48.39c0 1.237 1.056 2.21 2.4 2.21 1.344 0 2.4-.973 2.4-2.21V33.8h-4.8v14.59zM12.747 31.4c2.985 0 5.428-2.618 5.428-5.818 0 3.2 2.443 5.818 5.429 5.818s5.428-2.618 5.428-5.818c0 3.2 2.443 5.818 5.429 5.818s5.428-2.618 5.428-5.818c0 3.2 2.443 5.818 5.429 5.818 1.357 0 2.579-.51 3.46-1.382 1.494-1.382 2.104-3.564 1.697-5.6l-.407-2.473L48.198 7.4h-38.4L7.997 21.945l-.475 2.473c-.407 2.036.203 4.291 1.696 5.6a5.16 5.16 0 0 0 3.529 1.382z" fill="#fff"/>
</svg>
