<svg width="72" height="72" viewBox="0 0 72 72" fill="none" xmlns="http://www.w3.org/2000/svg">
    <path d="M18.75 60c-4.3 0-8-1.55-11.1-4.65-3.1-3.1-4.65-6.8-4.65-11.1 0-3.9 1.237-7.337 3.713-10.312 2.474-2.975 5.662-4.763 9.562-5.363 1-4.85 3.35-8.812 7.05-11.887 3.7-3.075 7.975-4.613 12.825-4.613 5.65 0 10.388 2.038 14.212 6.113C54.188 22.263 56.1 27.15 56.1 32.85v1.8c3.6-.1 6.65 1.063 9.15 3.488S69 43.625 69 47.325c0 3.45-1.25 6.425-3.75 8.925-2.5 2.5-5.475 3.75-8.925 3.75H38.25c-1.2 0-2.25-.45-3.15-1.35-.9-.9-1.35-1.95-1.35-3.15V36.15L29.1 40.8c-.45.45-.975.663-1.575.638-.6-.025-1.125-.263-1.575-.713a2.2 2.2 0 0 1-.675-1.612 2.2 2.2 0 0 1 .675-1.613l8.475-8.475c.25-.25.5-.425.75-.525.25-.1.525-.15.825-.15.3 0 .575.05.825.15.25.1.5.275.75.525l8.55 8.55c.45.45.675.975.675 1.575s-.225 1.125-.675 1.575a2.2 2.2 0 0 1-1.612.675 2.2 2.2 0 0 1-1.613-.675l-4.65-4.575V55.5h18.075c2.25 0 4.175-.8 5.775-2.4 1.6-1.6 2.4-3.525 2.4-5.775 0-2.25-.8-4.175-2.4-5.775-1.6-1.6-3.525-2.4-5.775-2.4H51.6v-6.3c0-4.45-1.513-8.275-4.538-11.475-3.024-3.2-6.762-4.8-11.212-4.8s-8.2 1.6-11.25 4.8c-3.05 3.2-4.575 7.025-4.575 11.475H18.6c-3.1 0-5.725 1.088-7.875 3.263-2.15 2.175-3.225 4.862-3.225 8.062 0 3.1 1.1 5.763 3.3 7.988 2.2 2.225 4.85 3.337 7.95 3.337H27c.65 0 1.188.213 1.613.638.425.425.637.962.637 1.612 0 .65-.212 1.188-.637 1.613-.425.425-.963.637-1.613.637h-8.25z" fill="#4C85A9"/>
</svg>
