<svg width="33" height="32" viewBox="0 0 33 32" fill="none" xmlns="http://www.w3.org/2000/svg">
    <path d="M27.764 6.535 25.887 4.66 23.5 7.045l1.876 1.877 2.387-2.387zM25.873 27.212l-2.386-2.4 1.866-1.866 2.4 2.386-1.88 1.88zM31.167 14.6h-4v2.666h4v-2.667zM24.5 15.932c0 4.414-3.587 8-8 8v-2.666a5.332 5.332 0 0 0 5.333-5.333 5.332 5.332 0 0 0-5.333-5.334V7.933c4.413 0 8 3.586 8 8z" fill="#F15F31"/>
    <path d="M13.834 2.667H16.5v26.667h-2.666v-5.56l-4.32 4.32-1.894-1.88L13.834 20v-2.666h-2.667l-6.213 6.213-1.88-1.893 4.32-4.32h-5.56v-2.667h5.56l-4.32-4.32 1.88-1.893 6.213 6.213h2.667V12L7.62 5.787l1.894-1.88 4.32 4.32v-5.56z" fill="#0CA9DA"/>
</svg>
