<svg width="24" height="24" viewBox="0 0 24 24" fill="none" xmlns="http://www.w3.org/2000/svg">
    <circle cx="12" cy="12" r="12" fill="#F15F31"/>
    <path fill-rule="evenodd" clip-rule="evenodd" d="M14.625 5.875v7a4.383 4.383 0 0 1 1.75 3.5A4.377 4.377 0 0 1 12 20.75a4.377 4.377 0 0 1-4.375-4.375c0-1.426.691-2.704 1.75-3.5v-7A2.621 2.621 0 0 1 12 3.25a2.621 2.621 0 0 1 2.625 2.625zm-3.5 0V8.5h1.75V6.75h-.438A.433.433 0 0 1 12 6.312c0-.245.193-.437.438-.437h.437A.878.878 0 0 0 12 5a.878.878 0 0 0-.875.875zm2.352 8.62c.385.332.78.673.979 1.21a2.427 2.427 0 0 1-.565 2.626c-.62.59-1.483.744-2.281.638a2.7 2.7 0 0 1-2.235-2.574c0-.864.226-1.437.45-1.792.095-.147.318-.062.298.116-.052.481.01 1.154.604 1.621.128.103.305-.044.246-.201-.718-1.919.138-3.383 1.33-4.114.124-.078.278.038.246.188-.273 1.244.315 1.752.928 2.282z" fill="#fff"/>
</svg>
