<svg width="80" height="80" viewBox="0 0 80 80" fill="none" xmlns="http://www.w3.org/2000/svg">
    <path d="M13.333 43.333h20c1.834 0 3.334-1.5 3.334-3.333V13.333c0-1.833-1.5-3.333-3.334-3.333h-20A3.343 3.343 0 0 0 10 13.333V40c0 1.833 1.5 3.333 3.333 3.333zm0 26.667h20c1.834 0 3.334-1.5 3.334-3.333V53.333c0-1.833-1.5-3.333-3.334-3.333h-20A3.343 3.343 0 0 0 10 53.333v13.334C10 68.5 11.5 70 13.333 70zm33.334 0h20C68.5 70 70 68.5 70 66.667V40c0-1.833-1.5-3.333-3.333-3.333h-20A3.343 3.343 0 0 0 43.333 40v26.667c0 1.833 1.5 3.333 3.334 3.333zm-3.334-56.667v13.334c0 1.833 1.5 3.333 3.334 3.333h20C68.5 30 70 28.5 70 26.667V13.333C70 11.5 68.5 10 66.667 10h-20a3.343 3.343 0 0 0-3.334 3.333z" fill="#A1A1A1"/>
</svg>
