<svg width="40" height="40" viewBox="0 0 40 40" fill="none" xmlns="http://www.w3.org/2000/svg">
<rect width="40" height="40" rx="4" fill="#F2F2F7"/>
<path fill-rule="evenodd" clip-rule="evenodd" d="M16.804 31.5833C16.7346 32.0694 17.1096 32.5 17.5957 32.5C17.8874 32.5 18.1512 32.3472 18.2901 32.0972C18.5003 31.7303 18.8535 31.1122 19.3503 30.2426C20.0678 28.9869 21.0847 27.207 22.4029 24.9029L29.3577 31.8577L30.7719 30.4435L23.4323 23.1039C24.2795 21.6238 25.2274 19.9688 26.2762 18.1389C26.5818 17.4861 26.2762 17.2222 25.7207 17.2222H20.8457L22.0957 8.41667C22.1651 7.93056 21.7901 7.5 21.304 7.5C21.0262 7.5 20.7485 7.65278 20.6096 7.90278C19.0248 10.6919 17.6166 13.1628 16.3875 15.3194C16.297 15.4781 16.2075 15.6352 16.119 15.7905L9.55874 9.23032L8.14453 10.6445L15.0923 17.5923C14.1942 19.1691 13.417 20.5358 12.7624 21.6944C12.7615 21.6957 12.76 21.6979 12.7578 21.7011C12.6895 21.7991 12.0082 22.7778 13.1929 22.7778H18.054L16.804 31.5833ZM15.0923 17.5923L22.4029 24.9029C22.7277 24.3351 23.0709 23.7354 23.4323 23.1039L16.119 15.7905C15.7608 16.4189 15.4186 17.0195 15.0923 17.5923Z" fill="#C7C7CC"/>
</svg>
