<svg width="24" height="24" viewBox="0 0 24 24" fill="none" xmlns="http://www.w3.org/2000/svg">
<path fill-rule="evenodd" clip-rule="evenodd" d="M4 13.3156C4 9.99563 6.67 6.06563 12 1.51562C17.33 6.06563 20 9.99563 20 13.3156C20 18.2956 16.2 21.5156 12 21.5156C7.8 21.5156 4 18.2956 4 13.3156ZM9.22268 11.4949L8.90043 11.7939C8.69269 11.9849 8.41036 12.0927 8.11554 12.0936C7.82072 12.0946 7.53756 11.9886 7.32836 11.799C7.11915 11.6094 7.00104 11.3517 7.00001 11.0826C6.99897 10.8135 7.11509 10.5551 7.32283 10.3641L9.22268 8.61485L10.0726 7.82894L11.1726 6.81486C11.2867 6.71014 11.4253 6.6304 11.5781 6.58163C11.6978 6.53647 11.8263 6.51404 11.9558 6.51571C12.0137 6.51646 12.0209 6.51654 12.0113 6.5164C12.1256 6.52057 12.2384 6.54259 12.3447 6.58163C12.4948 6.62987 12.6314 6.70778 12.7447 6.80979L13.9335 7.88471L14.7779 8.64527L16.6722 10.3591C16.8811 10.5488 16.999 10.8065 17 11.0755C17.001 11.3445 16.8852 11.6029 16.6778 11.794C16.4699 11.9846 16.1876 12.0922 15.8929 12.0932C15.5982 12.0941 15.3151 11.9883 15.1057 11.799L14.7779 11.505L13.9446 10.7495L13.1113 9.99906V17.5015C13.1113 17.7705 12.9943 18.0284 12.7859 18.2186C12.5776 18.4088 12.295 18.5156 12.0003 18.5156C11.7056 18.5156 11.423 18.4088 11.2147 18.2186C11.0063 18.0284 10.8892 17.7705 10.8892 17.5015V9.9585L10.056 10.7292L9.22268 11.4949ZM12.0113 6.5164C11.9947 6.51579 11.978 6.51556 11.9614 6.51571C11.9614 6.51571 11.9993 6.51622 12.0113 6.5164Z" fill="#0CA9DA"/>
</svg>
