<svg width="24" height="24" viewBox="0 0 24 24" fill="none" xmlns="http://www.w3.org/2000/svg">
    <path d="m22.611 12.01-2.484-1.737a4.387 4.387 0 0 1-.768-.727l-3.26-4.12c-.185-.234-.565-.426-.843-.426H2.181c-.277 0-.523.257-.545.57l-.634 9.072c-.022.314.179.642.446.728l1.518.492c.158.051.378.095.59.124 0 .022-.006.043-.006.065 0 1.077.772 1.949 1.724 1.949s1.724-.872 1.724-1.949c0-.01-.003-.02-.003-.032h9.609c0 .011-.003.021-.003.032 0 1.077.772 1.949 1.724 1.949.951 0 1.724-.872 1.724-1.949 0-.01-.003-.02-.003-.032h2.208c.278 0 .525-.256.549-.57l.195-2.568c.024-.313-.15-.705-.387-.87zm-8.706-2.984-.912-1.74c-.142-.27-.03-.492.248-.492h1.754c.279 0 .658.192.843.427l1.47 1.87c.184.235.108.427-.17.427h-2.47c-.278 0-.621-.221-.763-.492z" fill="#fff" opacity=".25"/>
</svg>
