<svg width="32" height="33" viewBox="0 0 32 33" fill="none" xmlns="http://www.w3.org/2000/svg">
    <g clipPath="url(#63kg9hogea)" fill="#404045">
        <path d="M4 16.5c0 2.947 1.213 5.6 3.147 7.52l-2.014 2.014c-.413.413-.12 1.133.48 1.133h5.72A.66.66 0 0 0 12 26.5v-5.72c0-.6-.72-.893-1.133-.466l-1.854 1.853C7.573 20.7 6.667 18.713 6.667 16.5a7.992 7.992 0 0 1 4.573-7.226c.453-.214.76-.627.76-1.12V7.9c0-.907-.947-1.48-1.76-1.093C6.56 8.487 4 12.193 4 16.5zM26.387 5.834h-5.72A.66.66 0 0 0 20 6.5v5.72c0 .6.72.893 1.133.467l1.854-1.853c1.44 1.466 2.346 3.453 2.346 5.666a7.991 7.991 0 0 1-4.573 7.227c-.453.213-.76.627-.76 1.12v.24c0 .907.947 1.48 1.76 1.093A10.62 10.62 0 0 0 28 16.5c0-2.947-1.213-5.6-3.147-7.52l2.014-2.013c.413-.413.12-1.133-.48-1.133z"/>
        <path fill-rule="evenodd" clip-rule="evenodd" d="M13.644 25.167h1.966l.185-.364.294-.574.884-1.723c.786-1.532 1.966-3.83 3.542-6.892l.011-.023.064-.152a.99.99 0 0 0-.05-.884c-.2-.345-.563-.5-.938-.5h-2.043l.8-6.221h-1.965l-.186.363-2.273 4.44c-.95 1.853-1.727 3.372-2.331 4.558l-.01.016-.006.013-.011.02-.075.148a1.603 1.603 0 0 0-.138.378c-.03.139-.047.335.023.542.177.521.682.633 1.014.633h2.043l-.8 6.222zm-1.546-7.476zm.355-.693-.003.005.003-.005zm1.494-2.921.581-1.136"/>
    </g>
    <defs>
        <clipPath id="63kg9hogea">
            <path fill="#fff" transform="translate(0 .5)" d="M0 0h32v32H0z"/>
        </clipPath>
    </defs>
</svg>
