<svg width="58" height="58" viewBox="0 0 58 58" fill="none" xmlns="http://www.w3.org/2000/svg">
    <g clipPath="url(#exgv9tyj3a)" fill="#fff">
        <path d="M7.398 29c0 5.304 2.184 10.08 5.664 13.536L9.438 46.16c-.744.744-.216 2.04.864 2.04h10.296c.672 0 1.2-.528 1.2-1.2V36.704c0-1.08-1.296-1.608-2.04-.84L16.422 39.2c-2.592-2.64-4.224-6.216-4.224-10.2 0-5.736 3.36-10.704 8.232-13.008.816-.384 1.368-1.128 1.368-2.016v-.456c0-1.632-1.704-2.664-3.168-1.968C12.006 14.576 7.398 21.248 7.398 29zM47.694 9.8H37.398c-.672 0-1.2.528-1.2 1.2v10.296c0 1.08 1.296 1.608 2.04.84l3.336-3.336c2.592 2.64 4.224 6.216 4.224 10.2 0 5.736-3.36 10.704-8.232 13.008-.816.384-1.368 1.128-1.368 2.016v.432c0 1.632 1.704 2.664 3.168 1.968 6.624-3 11.232-9.672 11.232-17.424 0-5.304-2.184-10.08-5.664-13.536l3.624-3.624c.744-.744.216-2.04-.864-2.04z"/>
        <path fill-rule="evenodd" clip-rule="evenodd" d="M24.76 44.6h3.538l.335-.655.529-1.033 1.59-3.102c1.415-2.758 3.539-6.893 6.375-12.405l.021-.041.115-.274c.197-.45.22-1.057-.088-1.591-.36-.622-1.015-.9-1.69-.9h-3.677l1.44-11.2H29.71l-.334.655-4.091 7.99v.002c-1.71 3.336-3.11 6.07-4.197 8.205a1.065 1.065 0 0 0-.016.028l-.013.024-.02.037-.134.265a2.881 2.881 0 0 0-.249.681 1.83 1.83 0 0 0 .042.976c.319.937 1.228 1.138 1.826 1.138H26.2l-1.44 11.2zm-2.783-13.456zm.125-.24.514-1.008.053-.104a2738.392 2738.392 0 0 1-.591 1.16m3.227-6.314 1.047-2.044c1.21-2.362 2.574-5.026 4.092-7.994"/>
    </g>
    <defs>
        <clipPath id="exgv9tyj3a">
            <path fill="#fff" transform="translate(.2 .2)" d="M0 0h57.6v57.6H0z"/>
        </clipPath>
    </defs>
</svg>
