<svg width="32" height="32" viewBox="0 0 32 32" fill="none" xmlns="http://www.w3.org/2000/svg">
    <rect width="32" height="32" rx="4" fill="#55B966"/>
    <g clipPath="url(#wkcuh6ueba)">
        <path d="M19.915 7.467h-1.781V6.401a1.07 1.07 0 0 0-1.067-1.067h-2.133a1.07 1.07 0 0 0-1.067 1.067v1.066h-1.781c-.779 0-1.419.64-1.419 1.419v16.352c0 .79.64 1.43 1.43 1.43h7.807c.79 0 1.43-.64 1.43-1.42V8.887c0-.779-.64-1.419-1.419-1.419z" fill="#fff"/>
    </g>
    <defs>
        <clipPath id="wkcuh6ueba">
            <path fill="#fff" transform="translate(3.2 3.2)" d="M0 0h25.6v25.6H0z"/>
        </clipPath>
    </defs>
</svg>
