<svg width="40" height="40" viewBox="0 0 40 40" fill="none" xmlns="http://www.w3.org/2000/svg">
    <path d="M7.778 18.611a2.675 2.675 0 0 1-1.962-.816A2.675 2.675 0 0 1 5 15.833V7.778c0-.764.272-1.418.816-1.962A2.675 2.675 0 0 1 7.778 5h8.055c.764 0 1.418.272 1.962.816.544.544.816 1.198.816 1.962v8.055c0 .764-.272 1.418-.816 1.962a2.675 2.675 0 0 1-1.962.816H7.778zm0 16.389a2.675 2.675 0 0 1-1.962-.816A2.675 2.675 0 0 1 5 32.222v-8.055c0-.764.272-1.418.816-1.962a2.675 2.675 0 0 1 1.962-.816h8.055c.764 0 1.418.272 1.962.816.544.544.816 1.198.816 1.962v8.055c0 .764-.272 1.418-.816 1.962a2.675 2.675 0 0 1-1.962.816H7.778zm16.389-16.389a2.675 2.675 0 0 1-1.962-.816 2.675 2.675 0 0 1-.816-1.962V7.778c0-.764.272-1.418.816-1.962A2.675 2.675 0 0 1 24.167 5h8.055c.764 0 1.418.272 1.962.816.544.544.816 1.198.816 1.962v8.055c0 .764-.272 1.418-.816 1.962a2.675 2.675 0 0 1-1.962.816h-8.055zm0 16.389a2.675 2.675 0 0 1-1.962-.816 2.675 2.675 0 0 1-.816-1.962v-8.055c0-.764.272-1.418.816-1.962a2.675 2.675 0 0 1 1.962-.816h8.055c.764 0 1.418.272 1.962.816.544.544.816 1.198.816 1.962v8.055c0 .764-.272 1.418-.816 1.962a2.675 2.675 0 0 1-1.962.816h-8.055zM7.777 15.833h8.056V7.778H7.778v8.055zm16.39 0h8.055V7.778h-8.055v8.055zm0 16.39h8.055v-8.056h-8.055v8.055zm-16.39 0h8.056v-8.056H7.778v8.055z" fill="#fff"/>
</svg>
