<svg width="25" height="24" viewBox="0 0 25 24" fill="none" xmlns="http://www.w3.org/2000/svg">
    <g clipPath="url(#bdliz2h7na)">
        <path d="M21.5 11h-3.17l2.54-2.54a.996.996 0 0 0 0-1.41c-.39-.39-1.03-.39-1.42 0L15.5 11h-2V9l3.95-3.95c.39-.39.39-1.03 0-1.42a.996.996 0 0 0-1.41 0L13.5 6.17V3c0-.55-.45-1-1-1s-1 .45-1 1v3.17L8.96 3.63a.996.996 0 0 0-1.41 0c-.39.39-.39 1.03 0 1.42L11.5 9v2h-2L5.55 7.05c-.39-.39-1.03-.39-1.42 0a.996.996 0 0 0 0 1.41L6.67 11H3.5c-.55 0-1 .45-1 1s.45 1 1 1h3.17l-2.54 2.54a.996.996 0 0 0 0 1.41c.39.39 1.03.39 1.42 0L9.5 13h2v2l-3.95 3.95c-.39.39-.39 1.03 0 1.42.39.39 1.02.39 1.41 0l2.54-2.54V21c0 .55.45 1 1 1s1-.45 1-1v-3.17l2.54 2.54c.39.39 1.02.39 1.41 0 .39-.39.39-1.03 0-1.42L13.5 15v-2h2l3.95 3.95c.39.39 1.03.39 1.42 0a.996.996 0 0 0 0-1.41L18.33 13h3.17c.55 0 1-.45 1-1s-.45-1-1-1z" fill="#0CA9DA"/>
    </g>
    <defs>
        <clipPath id="bdliz2h7na">
            <path fill="#fff" transform="translate(.5)" d="M0 0h24v24H0z"/>
        </clipPath>
    </defs>
</svg>
