<svg width="24" height="24" viewBox="0 0 24 24" fill="none" xmlns="http://www.w3.org/2000/svg">
    <path fill-rule="evenodd" clip-rule="evenodd" d="M15 5v8c1.21.91 2 2.37 2 4 0 2.76-2.24 5-5 5s-5-2.24-5-5c0-1.63.79-3.09 2-4V5c0-1.66 1.34-3 3-3s3 1.34 3 3zm-4 0v3h2V6h-.5c-.28 0-.5-.22-.5-.5s.22-.5.5-.5h.5c0-.55-.45-1-1-1s-1 .45-1 1zm2.688 9.851c.44.38.891.77 1.118 1.384a2.773 2.773 0 0 1-.645 3c-.709.675-1.695.85-2.607.73A3.086 3.086 0 0 1 9 17.023c0-.987.259-1.643.514-2.048.109-.168.364-.07.341.132-.06.55.011 1.319.69 1.853.147.117.35-.05.282-.23-.822-2.192.157-3.866 1.519-4.701.142-.09.319.043.281.214-.311 1.422.36 2.003 1.061 2.608z" fill="#F15F31"/>
</svg>
