<svg width="21" height="20" viewBox="0 0 21 20" fill="none" xmlns="http://www.w3.org/2000/svg">
    <g clipPath="url(#292wekgtga)">
        <path d="M11.334 2.5a7.5 7.5 0 0 0-7.5 7.5h-2.5l3.241 3.242.058.116L8 10H5.5a5.83 5.83 0 0 1 5.834-5.833A5.829 5.829 0 0 1 17.166 10a5.829 5.829 0 0 1-5.834 5.833 5.786 5.786 0 0 1-4.116-1.716L6.034 15.3a7.462 7.462 0 0 0 5.3 2.2 7.5 7.5 0 0 0 0-15zM10.5 6.667v4.166l3.542 2.1.642-1.066-2.934-1.742V6.667H10.5z" fill="#4C85A9"/>
    </g>
    <defs>
        <clipPath id="292wekgtga">
            <path fill="#fff" transform="translate(.5)" d="M0 0h20v20H0z"/>
        </clipPath>
    </defs>
</svg>
