<svg width="40" height="40" viewBox="0 0 40 40" fill="none" xmlns="http://www.w3.org/2000/svg">
    <path d="M9.446 35a2.675 2.675 0 0 1-1.962-.815 2.675 2.675 0 0 1-.816-1.962V16.39c0-.44.098-.857.295-1.25.197-.394.469-.718.816-.973l10.556-7.916c.255-.185.522-.324.8-.417.28-.092.57-.139.872-.139.302 0 .59.047.867.14.276.092.54.23.794.416l10.556 7.917c.347.254.619.578.816.972.196.393.295.81.295 1.25v15.833c0 .764-.272 1.418-.816 1.962a2.675 2.675 0 0 1-1.962.816h-7.222V23.334h-6.667v11.667H9.446z" fill="#fff"/>
</svg>
