<svg width="24" height="24" viewBox="0 0 24 24" fill="none" xmlns="http://www.w3.org/2000/svg">
    <circle cx="12" cy="12" r="12" fill="#D1D1D6"/>
    <path d="M18.75 11.25h-2.378l1.905-1.905a.747.747 0 0 0 0-1.058.756.756 0 0 0-1.065 0L14.25 11.25h-1.5v-1.5l2.963-2.963a.756.756 0 0 0 0-1.064.747.747 0 0 0-1.058 0L12.75 7.628V5.25A.752.752 0 0 0 12 4.5a.752.752 0 0 0-.75.75v2.378L9.345 5.723a.747.747 0 0 0-1.058 0 .756.756 0 0 0 0 1.064L11.25 9.75v1.5h-1.5L6.787 8.287a.756.756 0 0 0-1.064 0 .747.747 0 0 0 0 1.058l1.905 1.905H5.25a.752.752 0 0 0-.75.75c0 .412.338.75.75.75h2.378l-1.905 1.905a.747.747 0 0 0 0 1.058.756.756 0 0 0 1.064 0L9.75 12.75h1.5v1.5l-2.963 2.962a.756.756 0 0 0 0 1.066.747.747 0 0 0 1.058 0l1.905-1.905v2.377c0 .413.338.75.75.75s.75-.337.75-.75v-2.378l1.905 1.905a.747.747 0 0 0 1.058 0 .756.756 0 0 0 0-1.065L12.75 14.25v-1.5h1.5l2.962 2.963a.756.756 0 0 0 1.066 0 .747.747 0 0 0 0-1.058l-1.905-1.905h2.377c.413 0 .75-.338.75-.75a.752.752 0 0 0-.75-.75z" fill="#fff"/>
</svg>
