<svg width="41" height="40" viewBox="0 0 41 40" fill="none" xmlns="http://www.w3.org/2000/svg">
    <path d="M5.75 20c0 3.683 1.517 7 3.933 9.4l-2.516 2.517c-.517.516-.15 1.416.6 1.416h7.15a.825.825 0 0 0 .833-.833v-7.15c0-.75-.9-1.117-1.417-.584l-2.316 2.317c-1.8-1.833-2.934-4.316-2.934-7.083a9.99 9.99 0 0 1 5.717-9.034c.567-.266.95-.783.95-1.4V9.25c0-1.133-1.183-1.85-2.2-1.367-4.6 2.1-7.8 6.734-7.8 12.117zM33.733 6.666h-7.15a.825.825 0 0 0-.833.834v7.15c0 .75.9 1.117 1.417.583l2.316-2.317c1.8 1.834 2.934 4.317 2.934 7.084a9.99 9.99 0 0 1-5.717 9.033c-.567.267-.95.784-.95 1.4v.3c0 1.133 1.183 1.85 2.2 1.367 4.6-2.084 7.8-6.717 7.8-12.1 0-3.683-1.517-7-3.933-9.4l2.516-2.517c.517-.517.15-1.417-.6-1.417z" fill="#fff"/>
    <path fill-rule="evenodd" clip-rule="evenodd" d="M17.806 30.833h2.457l.233-.454.367-.718 1.105-2.154c.982-1.915 2.457-4.787 4.427-8.615l.014-.029.08-.19a1.238 1.238 0 0 0-.062-1.104c-.25-.432-.704-.625-1.173-.625H22.7l1-7.777h-2.457l-.232.453-2.841 5.55c-1.187 2.317-2.16 4.216-2.915 5.699a.904.904 0 0 0-.011.02l-.01.016-.013.025-.093.184a1.997 1.997 0 0 0-.173.473c-.037.174-.059.418.03.678.22.651.852.79 1.267.79h2.553l-1 7.778zm-1.933-9.344zm.087-.167.357-.7.037-.072a760.526 760.526 0 0 0-.394.772zm2.401-4.696.55-1.075c.84-1.64 1.788-3.49 2.842-5.551" fill="#fff"/>
</svg>
