<svg width="72" height="72" viewBox="0 0 72 72" fill="none" xmlns="http://www.w3.org/2000/svg">
    <path d="M36 72c19.882 0 36-16.118 36-36S55.882 0 36 0 0 16.118 0 36s16.118 36 36 36z" fill="#000"/>
    <path d="M30.108 53.673c0 .982.786 1.963 1.964 1.963h7.855c1.178 0 1.963-.981 1.963-1.963v-1.964H30.108v1.964zM36 16.363c-7.658 0-13.745 6.088-13.745 13.746 0 4.713 2.356 8.837 5.89 11.193v4.516c0 .982.786 1.964 1.965 1.964H41.89c1.178 0 1.964-.982 1.964-1.964v-4.516c3.535-2.553 5.89-6.676 5.89-11.193 0-7.658-6.087-13.745-13.745-13.745z" fill="#fff"/>
</svg>
