<svg width="40" height="40" viewBox="0 0 40 40" fill="none" xmlns="http://www.w3.org/2000/svg">
    <path d="M22.877 36.667h-5.75c-.343 0-.644-.111-.903-.334a1.37 1.37 0 0 1-.473-.847l-.61-4.097a9.564 9.564 0 0 1-1.452-.694 11.26 11.26 0 0 1-1.34-.903l-3.792 1.694a1.436 1.436 0 0 1-1 .056 1.32 1.32 0 0 1-.778-.64l-2.86-5.04a1.242 1.242 0 0 1-.154-.973c.084-.343.264-.62.542-.833l3.43-2.542a4.672 4.672 0 0 1-.083-.757 22.412 22.412 0 0 1 0-1.514c.01-.273.037-.525.084-.757l-3.431-2.542a1.453 1.453 0 0 1-.542-.833 1.242 1.242 0 0 1 .153-.972L6.78 9.097c.176-.333.433-.548.771-.646a1.482 1.482 0 0 1 1.007.063l3.792 1.694c.398-.314.847-.615 1.347-.902.5-.287.981-.51 1.444-.667l.611-4.125a1.37 1.37 0 0 1 .473-.847c.259-.223.56-.334.902-.334h5.75c.343 0 .644.111.903.334.26.222.417.504.473.847l.61 4.097c.473.176.961.403 1.466.68a7.44 7.44 0 0 1 1.326.917l3.792-1.694a1.436 1.436 0 0 1 1-.056c.333.102.593.315.778.64l2.86 5.013c.186.306.242.634.167.986-.074.352-.259.635-.555.847l-3.43 2.486c.046.25.073.512.083.785a23.087 23.087 0 0 1 0 1.556c-.01.264-.042.52-.097.77l3.43 2.515c.278.212.458.49.542.833.083.343.032.667-.153.972L33.21 30.89c-.185.324-.447.54-.785.646-.338.106-.673.09-1.007-.049l-3.764-1.694c-.398.314-.842.62-1.333.916-.49.297-.977.524-1.458.68l-.611 4.098a1.37 1.37 0 0 1-.473.847c-.259.223-.56.334-.902.334zm-2.848-11.112c1.537 0 2.848-.541 3.93-1.625 1.084-1.083 1.626-2.393 1.626-3.93 0-1.537-.542-2.847-1.625-3.93-1.084-1.084-2.394-1.626-3.93-1.626-1.547 0-2.86.542-3.938 1.626-1.079 1.083-1.618 2.393-1.618 3.93 0 1.537.539 2.847 1.618 3.93 1.079 1.084 2.391 1.625 3.937 1.625zm0-2.777c-.768 0-1.423-.271-1.965-.813A2.677 2.677 0 0 1 17.251 20c0-.768.271-1.424.813-1.965a2.677 2.677 0 0 1 1.965-.813c.769 0 1.424.271 1.965.813.542.541.813 1.197.813 1.965s-.27 1.424-.813 1.965a2.677 2.677 0 0 1-1.965.813zm-1.805 11.11h3.541l.584-4.582a9.664 9.664 0 0 0 2.534-1.021 10.436 10.436 0 0 0 2.16-1.66l4.32 1.847 1.652-2.944-3.805-2.82c.12-.444.213-.89.278-1.34.064-.449.097-.905.097-1.368 0-.463-.028-.919-.084-1.368a7.627 7.627 0 0 0-.291-1.34l3.805-2.82-1.652-2.944-4.32 1.86a9.262 9.262 0 0 0-2.118-1.742 7.563 7.563 0 0 0-2.576-.952l-.57-4.583h-3.541l-.584 4.583a8.963 8.963 0 0 0-2.562.993 9.385 9.385 0 0 0-2.132 1.688l-4.32-1.847-1.652 2.944 3.805 2.806c-.12.454-.213.903-.278 1.347A9.507 9.507 0 0 0 10.418 20c0 .463.033.917.097 1.361.065.445.158.894.278 1.347l-3.805 2.82 1.652 2.944 4.32-1.86a10.198 10.198 0 0 0 2.16 1.673 9.667 9.667 0 0 0 2.534 1.02l.57 4.584z" fill="#fff"/>
</svg>
