<svg width="580" height="801" viewBox="0 0 580 801" fill="none" xmlns="http://www.w3.org/2000/svg">
    <g opacity=".1" clipPath="url(#zwo99l1bia)" fill="#fff">
        <path d="M163.501 436.774c50.166 0 90.834-40.667 90.834-90.833s-40.668-90.834-90.834-90.834c-50.166 0-90.833 40.668-90.833 90.834 0 50.166 40.667 90.833 90.833 90.833zM327.001 291.44c50.166 0 90.834-40.667 90.834-90.833s-40.668-90.834-90.834-90.834c-50.166 0-90.833 40.668-90.833 90.834 0 50.166 40.667 90.833 90.833 90.833zM545.001 291.44c50.166 0 90.834-40.667 90.834-90.833s-40.668-90.834-90.834-90.834c-50.166 0-90.833 40.668-90.833 90.834 0 50.166 40.667 90.833 90.833 90.833zM629.973 540.687c-31.61-37.06-58.133-68.67-90.106-105.73-16.714-19.62-38.15-39.24-63.584-47.96a73.398 73.398 0 0 0-11.99-3.27c-9.083-1.454-18.893-1.454-28.34-1.454-9.446 0-19.256 0-28.703 1.817a73.627 73.627 0 0 0-11.99 3.27c-25.433 8.72-46.507 28.34-63.583 47.96-31.61 37.06-58.134 68.67-90.107 105.73-47.597 47.597-106.093 100.28-95.193 174.037 10.536 37.06 37.06 73.756 84.656 84.293 26.524 5.45 111.18-15.987 201.287-15.987h6.54c90.107 0 174.763 21.074 201.287 15.987 47.596-10.537 74.12-47.597 84.656-84.293 11.264-74.12-47.233-126.804-94.83-174.4z"/>
    </g>
    <defs>
        <clipPath id="zwo99l1bia">
            <path fill="#fff" transform="translate(0 .773)" d="M0 0h872v872H0z"/>
        </clipPath>
    </defs>
</svg>
