<svg width="32" height="32" viewBox="0 0 32 32" fill="none" xmlns="http://www.w3.org/2000/svg">
    <rect width="32" height="32" rx="4" fill="#0BBFBF"/>
    <g clipPath="url(#08bn0xfyla)" fill="#fff">
        <path d="M8 16a2.667 2.667 0 1 0 0-5.333A2.667 2.667 0 0 0 8 16zM12.8 11.733a2.667 2.667 0 1 0 0-5.333 2.667 2.667 0 0 0 0 5.333zM19.2 11.733a2.667 2.667 0 1 0 0-5.333 2.667 2.667 0 0 0 0 5.333zM24 16a2.667 2.667 0 1 0 0-5.333A2.667 2.667 0 0 0 24 16zM21.696 19.05c-.928-1.087-1.707-2.015-2.645-3.103-.491-.576-1.12-1.152-1.867-1.408a2.156 2.156 0 0 0-.352-.096c-.267-.043-.555-.043-.832-.043-.277 0-.565 0-.843.053a2.173 2.173 0 0 0-.352.096c-.746.256-1.365.832-1.866 1.408-.928 1.088-1.707 2.016-2.646 3.104-1.397 1.398-3.114 2.944-2.794 5.11.309 1.088 1.088 2.165 2.485 2.474.779.16 3.264-.469 5.91-.469h.191c2.646 0 5.131.619 5.91.47 1.397-.31 2.176-1.398 2.485-2.475.33-2.176-1.387-3.723-2.784-5.12z"/>
    </g>
    <defs>
        <clipPath id="08bn0xfyla">
            <path fill="#fff" transform="translate(3.2 3.2)" d="M0 0h25.6v25.6H0z"/>
        </clipPath>
    </defs>
</svg>
