<svg width="40" height="41" viewBox="0 0 40 41" fill="none" xmlns="http://www.w3.org/2000/svg">
    <g clipPath="url(#dxvfeuilwa)" fill="#7D69DE">
        <path d="M7.499 20.5a4.167 4.167 0 1 0 0-8.334 4.167 4.167 0 0 0 0 8.333zM14.999 13.833a4.167 4.167 0 1 0 0-8.333 4.167 4.167 0 0 0 0 8.333zM24.999 13.833a4.167 4.167 0 1 0 0-8.333 4.167 4.167 0 0 0 0 8.333zM32.499 20.5a4.167 4.167 0 1 0 0-8.334 4.167 4.167 0 0 0 0 8.333zM28.9 25.267c-1.45-1.7-2.666-3.15-4.133-4.85-.767-.9-1.75-1.8-2.917-2.2a3.368 3.368 0 0 0-.55-.15C20.884 18 20.434 18 20 18c-.433 0-.883 0-1.316.083a3.39 3.39 0 0 0-.55.15c-1.167.4-2.134 1.3-2.917 2.2-1.45 1.7-2.667 3.15-4.133 4.85-2.184 2.184-4.867 4.6-4.367 7.984.483 1.7 1.7 3.383 3.883 3.866 1.217.25 5.1-.733 9.234-.733h.3c4.133 0 8.016.967 9.233.733 2.183-.483 3.4-2.183 3.883-3.866.517-3.4-2.166-5.817-4.35-8z"/>
    </g>
    <defs>
        <clipPath id="dxvfeuilwa">
            <path fill="#fff" transform="translate(0 .5)" d="M0 0h40v40H0z"/>
        </clipPath>
    </defs>
</svg>
