<svg width="64" height="64" viewBox="0 0 64 64" fill="none" xmlns="http://www.w3.org/2000/svg">
    <path d="M2.34 59.569c-.458 0-.857-.105-1.196-.315a2.217 2.217 0 0 1-.791-.832c-.213-.336-.33-.7-.35-1.093-.022-.392.095-.792.35-1.2l29.66-51.217c.254-.407.547-.7.879-.879A2.3 2.3 0 0 1 32 3.766a2.3 2.3 0 0 1 1.108.267c.332.179.625.472.88.88l29.66 51.216c.254.408.37.808.35 1.2a2.242 2.242 0 0 1-.35 1.093 2.217 2.217 0 0 1-.792.832c-.339.21-.738.315-1.196.315H2.34zm29.98-8.944c.653 0 1.196-.22 1.63-.663.432-.442.649-.99.649-1.644 0-.653-.221-1.197-.663-1.63-.442-.433-.99-.65-1.644-.65-.653 0-1.197.222-1.63.664-.433.442-.65.99-.65 1.643 0 .654.221 1.197.664 1.63.442.434.99.65 1.643.65zm0-8.485c.653 0 1.196-.22 1.63-.66.432-.439.649-.983.649-1.633V27.31c0-.65-.221-1.194-.663-1.634-.442-.44-.99-.66-1.644-.66-.653 0-1.197.22-1.63.66-.433.44-.65.984-.65 1.634v12.537c0 .65.221 1.194.664 1.634.442.44.99.659 1.643.659z" fill="#F15F31"/>
</svg>
