<svg width="64" height="65" viewBox="0 0 64 65" fill="none" xmlns="http://www.w3.org/2000/svg">
    <path d="M31.999 48.773c.747 0 1.374-.253 1.881-.759.507-.505.76-1.132.76-1.88 0-.747-.253-1.374-.759-1.881-.505-.507-1.132-.76-1.88-.76-.747 0-1.374.253-1.881.759-.507.505-.76 1.132-.76 1.88 0 .747.253 1.374.759 1.881.505.507 1.132.76 1.88.76zm.255-12.24c.684 0 1.253-.23 1.706-.69.453-.46.68-1.03.68-1.71v-15.44c0-.68-.231-1.25-.694-1.71-.463-.46-1.036-.69-1.72-.69-.684 0-1.253.23-1.706.69-.453.46-.68 1.03-.68 1.71v15.44c0 .68.231 1.25.694 1.71.463.46 1.036.69 1.72.69zm-.233 28.24c-4.412 0-8.559-.84-12.44-2.52-3.88-1.68-7.274-3.973-10.181-6.88-2.907-2.907-5.2-6.302-6.88-10.187C.84 41.3 0 37.15 0 32.733s.84-8.568 2.52-12.452c1.68-3.885 3.973-7.268 6.88-10.148s6.302-5.16 10.187-6.84c3.885-1.68 8.036-2.52 12.453-2.52s8.568.84 12.453 2.52c3.885 1.68 7.267 3.96 10.147 6.84s5.16 6.267 6.84 10.16C63.16 24.187 64 28.34 64 32.752c0 4.412-.84 8.559-2.52 12.44-1.68 3.88-3.96 7.27-6.84 10.166-2.88 2.897-6.267 5.19-10.16 6.88-3.893 1.69-8.046 2.535-12.459 2.535z" fill="#F7A300"/>
</svg>
