<svg width="32" height="32" viewBox="0 0 32 32" fill="none" xmlns="http://www.w3.org/2000/svg">
    <path d="M13.334 20.667v-9.334a.666.666 0 0 1 1.067-.533l6.227 4.667c.36.266.36.8 0 1.066L14.4 21.2a.666.666 0 0 1-1.067-.533zm15.947-5.934c.773 8.347-6.187 15.307-14.533 14.534C8.84 28.72 3.92 24.133 2.88 18.293a12.773 12.773 0 0 1 .16-5.386 1.333 1.333 0 0 1 1.746-.934c.627.227 1 .894.84 1.547A10.717 10.717 0 0 0 5.374 17c.493 5.387 5.187 9.667 10.6 9.68 6.387.013 11.48-5.613 10.587-12.16-.68-4.933-4.88-8.827-9.854-9.147a10.37 10.37 0 0 0-3.173.267 1.33 1.33 0 0 1-1.546-.853c-.267-.747.16-1.56.92-1.747 2.386-.573 5-.547 7.706.493 4.747 1.8 8.2 6.16 8.667 11.2zm-21.947-9.4c-1.107 0-2 .894-2 2 0 1.107.893 2 2 2s2-.893 2-2c0-1.106-.893-2-2-2z" fill="#404045"/>
</svg>
