<svg width="40" height="40" viewBox="0 0 40 40" fill="none" xmlns="http://www.w3.org/2000/svg">
    <g clipPath="url(#912b3c380a)">
        <path d="M29.658 21.61h-8.049v8.048c0 .886-.724 1.61-1.61 1.61-.885 0-1.609-.724-1.609-1.61V21.61h-8.048c-.886 0-1.61-.725-1.61-1.61 0-.885.724-1.61 1.61-1.61h8.048v-8.048c0-.885.724-1.61 1.61-1.61.885 0 1.61.725 1.61 1.61v8.048h8.048c.885 0 1.61.725 1.61 1.61 0 .885-.725 1.61-1.61 1.61z" fill="currentColor"/>
    </g>
    <defs>
        <clipPath id="912b3c380a">
            <path fill="#fff" transform="translate(.684 .684)" d="M0 0h38.632v38.632H0z"/>
        </clipPath>
    </defs>
</svg>
