<svg width="40" height="40" viewBox="0 0 40 40" fill="none" xmlns="http://www.w3.org/2000/svg">
    <mask id="ytej827oia" style="mask-type:alpha" maskUnits="userSpaceOnUse" x="0" y="0" width="40" height="40">
        <path fill="#D9D9D9" d="M0 0h40v40H0z"/>
    </mask>
    <g mask="url(#ytej827oia)">
        <path d="M19.999 30c2.777 0 5.139-.972 7.083-2.916s2.917-4.306 2.917-7.083c0-2.778-.973-5.14-2.917-7.084s-4.306-2.916-7.083-2.916v10l-7.084 7.083a11.026 11.026 0 0 0 3.271 2.146c1.209.514 2.48.77 3.813.77zm0 6.667c-2.306 0-4.472-.437-6.5-1.312-2.028-.875-3.792-2.063-5.292-3.563s-2.687-3.264-3.562-5.291c-.875-2.028-1.313-4.195-1.313-6.5 0-2.306.438-4.473 1.313-6.5.875-2.028 2.062-3.792 3.562-5.292s3.264-2.688 5.292-3.563c2.027-.875 4.194-1.312 6.5-1.312 2.305 0 4.472.437 6.5 1.312 2.027.875 3.791 2.063 5.291 3.563 1.5 1.5 2.688 3.264 3.563 5.292.875 2.027 1.312 4.194 1.312 6.5 0 2.305-.437 4.472-1.312 6.5-.875 2.027-2.063 3.791-3.563 5.291-1.5 1.5-3.264 2.688-5.291 3.563-2.028.875-4.195 1.312-6.5 1.312zm0-3.333c3.722 0 6.875-1.292 9.458-3.875s3.875-5.736 3.875-9.458c0-3.723-1.292-6.875-3.875-9.459-2.583-2.583-5.736-3.875-9.458-3.875-3.723 0-6.875 1.292-9.459 3.875-2.583 2.584-3.875 5.736-3.875 9.459 0 3.722 1.292 6.875 3.875 9.458 2.584 2.583 5.736 3.875 9.459 3.875z" fill="#D1D1D6"/>
    </g>
</svg>
