<svg width="58" height="58" viewBox="0 0 58 58" fill="none" xmlns="http://www.w3.org/2000/svg">
    <g clipPath="url(#sgldkd6lsa)">
        <path d="M43.399 5.024 14.599 5c-2.64 0-4.8 2.136-4.8 4.8v38.4c0 2.64 2.16 4.8 4.8 4.8h28.8c2.64 0 4.8-2.16 4.8-4.8V9.8c0-2.664-2.16-4.776-4.8-4.776zm0 43.176h-28.8V26.552h28.8V48.2zm0-26.4h-28.8v-12h28.8v12zm-24-9.6h4.8v7.2h-4.8v-7.2zm0 16.8h4.8v12h-4.8V29z" fill="#fff"/>
    </g>
    <defs>
        <clipPath id="sgldkd6lsa">
            <path fill="#fff" transform="translate(.2 .2)" d="M0 0h57.6v57.6H0z"/>
        </clipPath>
    </defs>
</svg>
