<svg width="40" height="40" viewBox="0 0 40 40" fill="none" xmlns="http://www.w3.org/2000/svg">
    <g clipPath="url(#b2eecf6kva)" fill="#7AC6D1">
        <path d="M14.267 23.333H25.75c.434-.75.734-1.6.85-2.5H13.434c.1.9.383 1.75.833 2.5zM20 26.667c1.683 0 3.183-.65 4.366-1.667h-8.733c1.183 1.017 2.683 1.667 4.367 1.667zM20 13.333c-1.684 0-3.184.65-4.367 1.667h8.733c-1.183-1.017-2.683-1.667-4.366-1.667zM14.268 16.667c-.433.75-.733 1.6-.85 2.5h13.167c-.117-.9-.4-1.75-.85-2.5H14.268z"/>
        <path d="M5 5v30h30V5H5zm15 25c-5.517 0-10-4.483-10-10s4.483-10 10-10 10 4.483 10 10-4.483 10-10 10z"/>
    </g>
    <defs>
        <clipPath id="b2eecf6kva">
            <path fill="#fff" d="M0 0h40v40H0z"/>
        </clipPath>
    </defs>
</svg>
