<svg width="32" height="32" viewBox="0 0 32 32" fill="none" xmlns="http://www.w3.org/2000/svg">
    <g clipPath="url(#777zmen4qa)">
        <path d="M23.034 19.8c-.244-.089-.428-.267-.55-.533a.885.885 0 0 1-.017-.767c.178-.4.306-.817.384-1.25.077-.433.116-.928.116-1.483 0-1.756-.677-3.323-2.033-4.7C19.578 9.689 18.001 9 16.201 9c-.445 0-.9.039-1.367.117a6.585 6.585 0 0 0-1.367.383.923.923 0 0 1-.766 0 1.029 1.029 0 0 1-.534-.567.883.883 0 0 1 .034-.783c.133-.256.322-.439.566-.55a7.763 7.763 0 0 1 1.684-.467A11.503 11.503 0 0 1 16.234 7c2.422 0 4.483.861 6.183 2.583 1.7 1.723 2.55 3.784 2.55 6.184 0 .71-.039 1.327-.116 1.85a7.223 7.223 0 0 1-.45 1.616.953.953 0 0 1-.584.55c-.277.1-.539.106-.783.017zM16.001 3.333a.96.96 0 0 1-.7-.3.96.96 0 0 1-.3-.7V1c0-.289.1-.528.3-.717.2-.189.444-.283.733-.283a.971.971 0 0 1 .967 1v1.333c0 .267-.095.5-.284.7-.189.2-.427.3-.716.3zM16 32a.96.96 0 0 1-.7-.3.96.96 0 0 1-.3-.7v-1.333c0-.29.1-.528.3-.717.2-.189.444-.283.733-.283a.971.971 0 0 1 .967 1V31c0 .267-.095.5-.284.7-.189.2-.427.3-.716.3zm8.833-24.867c-.2-.2-.3-.439-.3-.716 0-.278.1-.517.3-.717l.933-.933c.2-.2.445-.3.734-.3.288 0 .533.1.733.3.2.2.294.439.283.716a1.04 1.04 0 0 1-.316.717l-.934.933c-.2.2-.439.3-.716.3a.978.978 0 0 1-.717-.3zM4.801 27.2c-.2-.2-.3-.439-.3-.717 0-.277.1-.516.3-.716l.933-.934c.2-.2.428-.294.683-.283.256.011.484.106.684.283a1 1 0 0 1 .333.7.893.893 0 0 1-.267.734l-.933.933c-.2.2-.439.3-.717.3a.978.978 0 0 1-.716-.3zM29.667 17a.96.96 0 0 1-.7-.3c-.2-.2-.3-.444-.3-.733 0-.267.1-.495.3-.684a.987.987 0 0 1 .7-.283h1.334c.288 0 .527.094.716.283a.971.971 0 0 1 .284.717c0 .267-.095.5-.284.7-.189.2-.427.3-.716.3h-1.334zM1.334 17a.96.96 0 0 1-.7-.3c-.2-.2-.3-.444-.3-.733 0-.267.1-.495.3-.684a.987.987 0 0 1 .7-.283h1.333c.29 0 .528.094.717.283a.971.971 0 0 1 .283.717c0 .267-.094.5-.283.7-.189.2-.428.3-.717.3H1.334zm24.433 10.2-.933-.933a.883.883 0 0 1-.283-.684c.01-.255.105-.483.283-.683.178-.178.411-.283.7-.317a.849.849 0 0 1 .733.25l.934.934c.2.2.294.433.283.7-.011.266-.106.5-.283.7a.943.943 0 0 1-.7.316.943.943 0 0 1-.734-.283zM5.734 7.133 4.801 6.2a.883.883 0 0 1-.284-.683c.011-.256.106-.484.284-.684a1 1 0 0 1 .7-.333.893.893 0 0 1 .733.267l.933.933c.2.2.3.439.3.717 0 .277-.1.516-.3.716-.2.2-.439.3-.716.3a.978.978 0 0 1-.717-.3zM16.001 25c-2.49 0-4.612-.878-6.367-2.633C7.878 20.61 7.001 18.489 7.001 16c0-.867.127-1.75.383-2.65.256-.9.672-1.739 1.25-2.517.089-.11.2-.21.333-.3a.821.821 0 0 1 .467-.133c.178 0 .35.05.517.15.166.1.294.228.383.383a25.958 25.958 0 0 0 4.65 6.117 28.679 28.679 0 0 0 6.15 4.583c.155.09.283.2.383.334.1.133.15.289.15.466 0 .178-.039.34-.116.484a1.3 1.3 0 0 1-.317.383 8.344 8.344 0 0 1-2.5 1.283 9.11 9.11 0 0 1-2.733.417zm0-2c.51 0 1.005-.056 1.483-.167.478-.11.872-.222 1.183-.333a32.357 32.357 0 0 1-5.083-4.083A30.832 30.832 0 0 1 9.467 13.4a12.37 12.37 0 0 0-.333 1.3 6.621 6.621 0 0 0-.133 1.3c0 2 .694 3.661 2.083 4.983 1.389 1.323 3.028 1.995 4.917 2.017z" fill="#000"/>
    </g>
    <defs>
        <clipPath id="777zmen4qa">
            <path fill="#fff" d="M0 0h32v32H0z"/>
        </clipPath>
    </defs>
</svg>
