<svg width="58" height="58" viewBox="0 0 58 58" fill="none" xmlns="http://www.w3.org/2000/svg">
    <g clipPath="url(#4o4m7mxdra)">
        <path d="M53 21.8v14.4c0 2.64-2.16 4.8-4.8 4.8h-2.4v-4.8h2.4V21.8H9.8v14.4h14.4V41H9.8C7.16 41 5 38.84 5 36.2V21.8C5 19.16 7.16 17 9.8 17h38.4c2.64 0 4.8 2.16 4.8 4.8zm-18 24 2.616-5.784L43.4 37.4l-5.784-2.616L35 29l-2.616 5.784L26.6 37.4l5.784 2.616L35 45.8zm6-12 1.488-3.312L45.8 29l-3.312-1.488L41 24.2l-1.488 3.312L36.2 29l3.312 1.488L41 33.8zm-6 12 2.616-5.784L43.4 37.4l-5.784-2.616L35 29l-2.616 5.784L26.6 37.4l5.784 2.616L35 45.8zm6-12 1.488-3.312L45.8 29l-3.312-1.488L41 24.2l-1.488 3.312L36.2 29l3.312 1.488L41 33.8z" fill="#fff"/>
    </g>
    <defs>
        <clipPath id="4o4m7mxdra">
            <path fill="#fff" transform="translate(.2 .2)" d="M0 0h57.6v57.6H0z"/>
        </clipPath>
    </defs>
</svg>
