<svg width="28" height="28" viewBox="0 0 28 28" fill="none" xmlns="http://www.w3.org/2000/svg">
    <path fill-rule="evenodd" clip-rule="evenodd" d="M17.501 5.836v9.333a5.844 5.844 0 0 1 2.334 4.667A5.835 5.835 0 0 1 14 25.669a5.836 5.836 0 0 1-5.833-5.833c0-1.902.922-3.605 2.333-4.667V5.836c0-1.937 1.564-3.5 3.5-3.5 1.937 0 3.5 1.563 3.5 3.5zm-4.666 0v3.5h2.333V7.003h-.583A.578.578 0 0 1 14 6.419c0-.326.257-.583.584-.583h.583a1.17 1.17 0 0 0-1.167-1.167 1.17 1.17 0 0 0-1.166 1.167zm3.136 11.493c.513.443 1.04.898 1.304 1.614a3.236 3.236 0 0 1-.752 3.5c-.827.788-1.978.993-3.042.852a3.6 3.6 0 0 1-2.98-3.432c0-1.152.302-1.917.6-2.39.127-.196.424-.082.398.155-.07.641.013 1.538.805 2.162.17.136.407-.06.328-.269-.958-2.558.184-4.51 1.773-5.485.166-.104.372.05.328.25-.363 1.66.42 2.336 1.238 3.043z" fill="#fff"/>
</svg>
