<svg width="40" height="40" viewBox="0 0 40 40" fill="none" xmlns="http://www.w3.org/2000/svg">
    <path d="M21.832 16.791v-3.042h9.542v3.042h-9.542zm0-5.792V7.957h13.709v3.042H21.832zm-9.291 24.25c-2.223 0-4.126-.792-5.709-2.375-1.583-1.583-2.375-3.5-2.375-5.75 0-1.333.306-2.583.917-3.75.611-1.167 1.5-2.167 2.667-3V9.207c0-1.25.437-2.312 1.312-3.187s1.938-1.313 3.188-1.313c1.25 0 2.312.438 3.187 1.313s1.313 1.937 1.313 3.187v11.167c1.194.805 2.097 1.798 2.708 2.979a8.085 8.085 0 0 1 .917 3.771c0 2.25-.792 4.167-2.375 5.75-1.583 1.583-3.5 2.375-5.75 2.375zm-4.917-8.125h9.875c0-.861-.215-1.73-.646-2.604-.43-.875-1.118-1.549-2.062-2.021l-.875-.5V9.207c0-.36-.132-.673-.396-.937a1.33 1.33 0 0 0-.979-.396c-.361 0-.674.132-.938.396a1.28 1.28 0 0 0-.396.937v12.792l-.875.5c-.917.472-1.597 1.153-2.041 2.042-.445.889-.667 1.75-.667 2.583z" fill="#F15F31"/>
</svg>
