<svg width="33" height="32" viewBox="0 0 33 32" fill="none" xmlns="http://www.w3.org/2000/svg">
    <path d="M15.167 9.333h2.666V12h-2.666V9.333zM12.5 14.667H9.833v2.666H12.5v-2.666zM17.833 14.667h-2.666v2.666h2.666v-2.666zM20.5 14.667h2.667v2.666H20.5v-2.666zM17.833 20h-2.666v2.667h2.666V20z" fill="#404045"/>
    <path fill-rule="evenodd" clip-rule="evenodd" d="M4.5 8a4 4 0 0 1 4-4h16a4 4 0 0 1 4 4v16a4 4 0 0 1-4 4h-16a4 4 0 0 1-4-4V8zm4-1.333h16c.736 0 1.333.597 1.333 1.333v16c0 .736-.597 1.333-1.333 1.333h-16A1.333 1.333 0 0 1 7.167 24V8c0-.736.597-1.333 1.333-1.333z" fill="#404045"/>
</svg>
