<svg width="100%" height="100%" viewBox="0 0 138 42" version="1.1" style="fill-rule:evenodd;clip-rule:evenodd;stroke-linejoin:round;stroke-miterlimit:2;">
    <g>
        <g>
            <path d="M71.9,33.4L71.8,31C71.7,31.1 71.6,31.3 71.6,31.4C71.2,32.1 70.5,32.7 69.8,33.1C68.7,33.7 67.5,34 66.2,34.1C64.8,34.2 63.3,34.1 62,33.5C61.2,33.2 60.5,32.7 59.9,32C59.4,31.4 59,30.6 58.9,29.8C58.8,29.2 58.8,28.5 58.7,27.8L58.7,15.8L66.1,15.8L66.1,27.4C66.2,27.8 66.3,28.3 66.5,28.6C67,29.2 68,29.4 68.9,29.3C69.4,29.3 69.9,29.1 70.4,28.9C71,28.6 71.5,28.1 71.7,27.4C71.8,27 71.9,26.6 71.9,26.2L71.9,15.8L79,15.8L79,33.4L71.9,33.4ZM81.7,33.4L81.7,15.8L88.9,15.8L88.9,18.7C89,18.5 89.1,18.4 89.1,18.2C89.3,17.9 89.5,17.6 89.8,17.3C90.2,16.9 90.6,16.6 91,16.3C91.5,16 92,15.8 92.5,15.7C93.8,15.3 95.2,15.1 96.6,15.3C97.6,15.4 98.7,15.6 99.6,16.2C100.2,16.5 100.7,17 101,17.6C101.3,18 101.4,18.5 101.6,18.9C101.8,18.5 102,18.1 102.3,17.7C102.9,16.9 103.8,16.3 104.7,16C105.9,15.5 107.3,15.3 108.6,15.4C109.7,15.4 110.7,15.5 111.7,15.9C112.6,16.2 113.4,16.7 114,17.4C114.4,17.9 114.8,18.5 114.9,19.1C115,19.4 115,19.7 115,20L115,33.5L107.8,33.5L107.8,23.2C107.8,23 107.7,22.8 107.6,22.6C107.5,22.4 107.3,22.1 107.1,22C106.9,21.8 106.7,21.7 106.4,21.6C106,21.5 105.7,21.4 105.3,21.4L104.3,21.4C104.1,21.4 103.8,21.5 103.6,21.6C103.4,21.7 103.1,21.8 102.9,21.9L102.3,22.5C102.2,22.7 102.1,22.9 102,23.2L102,33.5L94.6,33.5L94.6,22.9C94.6,22.6 94.5,22.4 94.3,22.1C94.1,21.8 93.7,21.6 93.4,21.5C93,21.4 92.7,21.3 92.3,21.3L91.4,21.3C91,21.3 90.7,21.4 90.3,21.5C90,21.6 89.7,21.7 89.5,21.9C89.3,22.1 89.1,22.4 89,22.7C88.9,22.9 88.9,23 88.9,23.2L88.9,33.4L81.7,33.4ZM42.8,15.8L50.2,15.8L50.2,19.4C50.4,19 50.5,18.6 50.7,18.2C51,17.8 51.3,17.3 51.7,17C52.1,16.6 52.7,16.3 53.2,16.1C53.8,15.9 54.3,15.7 54.9,15.6C55.5,15.5 56.1,15.4 56.7,15.4L57.3,15.4L57.3,22.5L57.2,22.5C56.9,22.4 56.6,22.3 56.3,22.3C55.9,22.2 55.6,22.2 55.2,22.2L53.8,22.2C53.5,22.2 53.1,22.3 52.8,22.4C52.4,22.5 52,22.7 51.7,23C51.4,23.2 51.1,23.5 50.8,23.8C50.6,24 50.4,24.2 50.3,24.5C50.2,24.7 50.2,25 50.1,25.2L50.1,33.4L42.8,33.4L42.8,15.8ZM137.7,33.2L137.7,19.9C137.7,19.4 137.5,19 137.3,18.5C137,17.8 136.4,17.2 135.8,16.8C135.2,16.4 134.5,16.2 133.9,16C133,15.8 132.1,15.6 131.2,15.5C130.3,15.4 129.4,15.3 128.5,15.3C127.1,15.3 125.7,15.4 124.3,15.5C123.6,15.6 123,15.6 122.3,15.8C121.6,16 120.8,16.2 120.2,16.6C119.7,16.9 119.2,17.2 118.8,17.6C118.4,18 118,18.5 117.8,19C117.6,19.4 117.4,19.9 117.3,20.4C117.2,20.7 117.2,21 117.2,21.2L117.2,21.6L125,21.6L125,21.2C125,21 125.1,20.9 125.1,20.7L125.4,20.1C125.6,19.9 125.8,19.6 126,19.5C126.3,19.3 126.6,19.2 126.9,19.1C127.3,19 127.8,18.9 128.3,18.9C128.8,18.9 129.3,19 129.7,19.2C129.9,19.3 130.1,19.5 130.3,19.7C130.4,19.9 130.5,20.1 130.5,20.3C130.5,20.5 130.5,20.7 130.4,21C130.3,21.2 130.2,21.4 130,21.6C129.6,22.1 128.9,22.2 128.2,22.3C127.1,22.5 126.1,22.7 125,22.9C123.8,23.1 122.7,23.2 121.4,23.4C120,23.7 118.6,24.1 117.7,25.1C116.8,26 116.2,27.6 116.3,29C116.3,30.3 116.8,31.6 117.7,32.5C118.5,33.4 119.7,33.9 121,34.1C122.4,34.4 123.8,34.3 125.2,34.1C126.3,33.9 127.4,33.7 128.3,33.2C128.9,32.9 129.5,32.4 130,31.9C130.1,31.8 130.2,31.6 130.3,31.5L130.4,33.6L137.7,33.6C137.8,33.4 137.8,33.3 137.7,33.2ZM130.4,24.5L130.4,25.9C130.4,26.3 130.4,26.6 130.3,27C130.2,27.4 130.1,27.8 129.9,28.2C129.7,28.5 129.5,28.9 129.2,29.1C128.9,29.4 128.5,29.7 128,29.9C127.5,30.2 126.9,30.3 126.3,30.3C125.6,30.3 124.9,30.1 124.5,29.7C124.1,29.2 123.9,28.5 124.1,27.8C124.3,27.2 124.8,26.7 125.3,26.4C125.8,26.1 126.5,26 127,25.9C127.5,25.8 128.1,25.7 128.6,25.5C129,25.4 129.3,25.2 129.7,25C130,24.8 130.2,24.7 130.4,24.7L130.4,24.5ZM22.4,14.5C22.4,14.4 22.5,14.3 22.5,14.3L22.8,13.7C22.9,13.4 23.1,13.2 23.3,12.9C23.5,12.7 23.6,12.4 23.8,12.2C24,11.9 24.3,11.6 24.6,11.4C24.9,11.1 25.2,10.8 25.5,10.4C25.7,10.1 25.9,9.9 26,9.6C26,9.5 26.1,9.3 26.1,9L26.1,8.3C26.1,8.2 26,8.1 26,8L25.7,7.4C25.5,7.2 25.3,6.9 25.1,6.7C24.9,6.5 24.8,6.3 24.6,6.2L23.5,5.1C23.4,5 23.3,4.8 23.2,4.7L22.8,4.3C22.8,4.2 22.7,4.2 22.7,4.1C22.7,4 22.6,4 22.6,3.9C22.6,4 22.6,4.1 22.7,4.1C22.8,4.3 22.8,4.4 22.8,4.6C22.9,4.8 22.9,5 23,5.3C23.1,5.5 23.1,5.7 23.2,5.9C23.3,6.2 23.4,6.4 23.5,6.7C23.6,7 23.7,7.4 23.8,7.7C23.9,8 23.9,8.3 23.9,8.6L23.9,9.4C23.9,9.6 23.8,9.8 23.8,9.9C23.8,10.1 23.7,10.2 23.7,10.4C23.6,10.6 23.5,10.9 23.4,11.1L23.1,12C23,12.3 22.9,12.7 22.8,13C22.7,13.3 22.7,13.5 22.6,13.8C22.3,14 22.3,14.2 22.4,14.5Z" style="fill:#005AAA;fill-rule:nonzero;"/>
            <path d="M20.7,0C9.3,0 0,9.3 0,20.7C0,32.1 9.3,41.4 20.7,41.4C32.1,41.4 41.4,32.1 41.4,20.7C41.4,9.3 32.1,0 20.7,0ZM20.7,39.7C10.2,39.7 1.6,31.1 1.6,20.6C1.6,10.1 10.2,1.6 20.7,1.6L21.5,1.6L21.5,1.8C21.4,2.3 21.3,2.8 21.1,3.3C21,3.7 20.8,4 20.7,4.4C20.6,4.7 20.4,5 20.2,5.3C20.1,5.5 19.9,5.7 19.8,5.9C19.7,6 19.6,6.2 19.5,6.3L19.2,6.6C19.1,6.7 19,6.9 18.8,7C18.6,7.2 18.5,7.4 18.4,7.6C18.3,7.8 18.2,8.1 18.1,8.4C18,8.8 18,9.2 18,9.6C18,9.9 18.1,10.3 18.2,10.6C18.3,10.8 18.3,11 18.5,11.2C18.6,11.4 18.8,11.6 18.9,11.8C19.1,12 19.2,12.2 19.4,12.3C19.5,12.4 19.7,12.5 19.8,12.7L20,12.8L20.2,13C20.4,13.1 20.5,13.3 20.7,13.5C20.8,13.7 21,13.8 21.1,14C21.2,14.2 21.4,14.4 21.5,14.6C21.6,14.7 21.7,14.9 21.8,15C21.8,15.1 21.9,15.2 21.9,15.2L21.9,15C21.8,14.9 21.8,14.7 21.8,14.6C21.8,14.3 21.7,14.1 21.7,13.9L21.7,12.9C21.8,12.4 21.9,11.8 22,11.3C22.1,10.9 22.2,10.4 22.4,10C22.5,9.7 22.5,9.4 22.6,9.1C22.6,8.8 22.7,8.5 22.7,8.2C22.7,7.9 22.7,7.6 22.6,7.3C22.5,6.9 22.4,6.5 22.2,6.1C22.1,5.7 21.9,5.3 21.9,4.9C21.8,4.6 21.8,4.3 21.7,3.9C21.7,3.5 21.6,3.2 21.6,2.8L21.6,1.7C29.9,2 36.8,7.8 39,15.5L9,15.5L9,21.6L18.4,21.6L18.4,29.5C18.4,29.7 18.4,30 18.5,30.2C18.6,30.7 18.7,31.1 18.9,31.6C19.2,32.2 19.6,32.7 20.1,33.2C20.6,33.7 21.2,34.1 21.8,34.4C22.9,34.9 24,35.2 25.2,35.3C26.7,35.5 28.2,35.5 29.7,35.3C30.6,35.2 31.6,35 32.5,34.6C33.2,34.4 33.9,34 34.5,33.7L34.6,33.7C31.1,37.4 26.1,39.7 20.7,39.7ZM38.4,27.4C38.1,27.7 37.7,27.9 37.3,28C36.7,28.2 36.2,28.5 35.6,28.7C35,28.9 34.5,29.1 33.9,29.2C33.3,29.4 32.6,29.5 32,29.6C31.5,29.7 30.9,29.7 30.4,29.7C29.8,29.7 29.2,29.7 28.6,29.6L28.3,29.5L28,29.5C27.8,29.5 27.6,29.4 27.4,29.3C27.2,29.2 26.9,29 26.8,28.8C26.6,28.6 26.5,28.4 26.4,28.2C26.3,27.9 26.2,27.5 26.2,27.2L26.2,21.8L39.8,21.8C39.6,23.7 39.2,25.6 38.4,27.4C38.5,27.4 38.5,27.4 38.4,27.4Z" style="fill:#005AAA;fill-rule:nonzero;"/>
        </g>
    </g>
</svg>
