<svg width="72" height="72" viewBox="0 0 72 72" fill="none" xmlns="http://www.w3.org/2000/svg">
    <rect width="72" height="72" rx="8" fill="#404045"/>
    <path d="M26.82 54.9c-1.684 0-3.06-1.384-3.06-3.075 0-1.691 1.376-3.075 3.06-3.075 1.682 0 3.06 1.384 3.06 3.075 0 1.691-1.378 3.075-3.06 3.075zm0-9.225c-1.684 0-3.06-1.384-3.06-3.075 0-1.691 1.376-3.075 3.06-3.075 1.682 0 3.06 1.384 3.06 3.075 0 1.691-1.378 3.075-3.06 3.075zM36 54.9c-1.684 0-3.06-1.384-3.06-3.075 0-1.691 1.376-3.075 3.06-3.075 1.682 0 3.06 1.384 3.06 3.075 0 1.691-1.378 3.075-3.06 3.075zm0-9.225c-1.684 0-3.06-1.384-3.06-3.075 0-1.691 1.376-3.075 3.06-3.075 1.682 0 3.06 1.384 3.06 3.075 0 1.691-1.378 3.075-3.06 3.075zm9.18 9.225c-1.684 0-3.06-1.384-3.06-3.075 0-1.691 1.376-3.075 3.06-3.075 1.682 0 3.06 1.384 3.06 3.075 0 1.691-1.378 3.075-3.06 3.075zm0-9.225c-1.684 0-3.06-1.384-3.06-3.075 0-1.691 1.376-3.075 3.06-3.075 1.682 0 3.06 1.384 3.06 3.075 0 1.691-1.378 3.075-3.06 3.075zm-24.48-12.3C20.7 24.888 27.553 18 36 18c8.445 0 15.3 6.888 15.3 15.375 0 1.691-1.378 3.075-3.06 3.075H23.76c-1.684 0-3.06-1.384-3.06-3.075z" fill="#fff"/>
</svg>
