<svg width="41" height="41" viewBox="0 0 41 41" fill="none" xmlns="http://www.w3.org/2000/svg">
    <g clipPath="url(#ytpby9u5ha)">
        <path d="M20.681 3.572C11.798 11.156 7.348 17.706 7.348 23.24c0 8.3 6.333 13.667 13.333 13.667s13.333-5.367 13.333-13.667c0-5.533-4.45-12.083-13.333-19.667zm-6.95 20c.617 0 1.117.434 1.233 1.034.684 3.7 3.8 4.966 6.067 4.783a1.254 1.254 0 0 1 1.317 1.25 1.26 1.26 0 0 1-1.2 1.25c-3.55.217-7.7-1.817-8.65-6.867-.134-.75.466-1.45 1.233-1.45z" fill="#0CA9DA"/>
    </g>
    <defs>
        <clipPath id="ytpby9u5ha">
            <path fill="#fff" transform="translate(.68 .238)" d="M0 0h40v40H0z"/>
        </clipPath>
    </defs>
</svg>
