<svg width="40" height="40" viewBox="0 0 40 40" fill="none" xmlns="http://www.w3.org/2000/svg">
    <path fill-rule="evenodd" clip-rule="evenodd" d="M6.667 23c0-5.533 4.45-12.083 13.333-19.667C28.884 10.917 33.334 17.467 33.334 23 33.334 31.3 27 36.667 20 36.667S6.667 31.3 6.667 23zm8.704-3.035-.537.499a1.946 1.946 0 0 1-1.308.5 1.947 1.947 0 0 1-1.312-.492 1.62 1.62 0 0 1-.547-1.194c-.002-.448.192-.879.538-1.197l3.166-2.916 1.417-1.31 1.833-1.69c.19-.174.422-.307.676-.388.2-.075.414-.113.63-.11l.092.001c.19.007.379.044.556.109.25.08.478.21.667.38l1.98 1.791 1.408 1.268 3.157 2.856c.348.317.545.746.547 1.194a1.62 1.62 0 0 1-.537 1.198 1.948 1.948 0 0 1-1.309.499 1.95 1.95 0 0 1-1.311-.49l-.547-.49-1.389-1.26-1.388-1.25v12.504c0 .448-.196.878-.543 1.195a1.946 1.946 0 0 1-1.31.495c-.49 0-.961-.178-1.309-.495a1.62 1.62 0 0 1-.542-1.195V17.405l-1.389 1.284-1.389 1.276zm4.648-8.297z" fill="#0CA9DA"/>
</svg>
