<svg width="40" height="40" viewBox="0 0 40 40" fill="none" xmlns="http://www.w3.org/2000/svg">
    <path fill-rule="evenodd" clip-rule="evenodd" d="M30.472 18.946a.72.72 0 0 1 .698-.613h3.99c.832 0 1.506.711 1.506 1.59 0 .877-.674 1.588-1.507 1.588h-2.092l-2.795 16.208a.72.72 0 0 1-.698.614H10.425a.72.72 0 0 1-.698-.614L6.932 21.511H4.84c-.833 0-1.507-.71-1.507-1.589 0-.878.674-1.589 1.507-1.589h3.99a.72.72 0 0 1 .697.613l.496 2.85c1.075.186 1.771.607 2.344.954.69.415 1.348.621 1.998.63.648.009 1.336-.18 2.087-.631 2.435-1.47 4.866-1.331 7.08-.002l.003.001c.573.346 1.186.586 1.846.626.652.04 1.396-.113 2.245-.626l.001-.001.007-.004c.573-.344 1.27-.762 2.343-.948l.495-2.849zm-12.525 6.562c-2.185 1.314-4.621 1.483-7.076-.002a19.052 19.052 0 0 0-.226-.134l1.702 9.784h15.305l1.703-9.787-.233.139c-2.167 1.3-4.59 1.496-7.083 0-.843-.507-1.583-.664-2.233-.627-.658.036-1.274.274-1.86.627z" fill="#F15F31"/>
    <path d="M27.795 10.587c-1.636-3.98-7.46-4.194-6.054-9.978.104-.43-.385-.761-.781-.537-3.782 2.088-6.502 6.272-4.22 11.754.188.448-.375.868-.781.575-1.886-1.336-2.084-3.258-1.917-4.633.062-.507-.646-.751-.949-.332-.708 1.015-1.427 2.653-1.427 5.121.396 5.462 5.324 7.14 7.095 7.354 2.532.303 5.273-.136 7.242-1.824 2.167-1.882 2.959-4.886 1.792-7.5z" fill="#F15F31"/>
</svg>
