<svg width="40" height="40" viewBox="0 0 40 40" fill="none" xmlns="http://www.w3.org/2000/svg">
    <g clipPath="url(#9ys3vrmm4a)">
        <path d="M28.334 28.316c-2.25 0-3.667.7-4.917 1.334-1.083.55-1.966 1-3.416 1-1.5 0-2.334-.417-3.417-1-1.25-.634-2.617-1.334-4.917-1.334s-3.666.7-4.916 1.334c-1.084.55-1.95 1-3.417 1v3.25c2.25 0 3.667-.7 4.917-1.334 1.083-.55 1.95-1 3.416-1 1.467 0 2.334.417 3.417 1 1.25.634 2.617 1.334 4.917 1.334s3.666-.7 4.916-1.334c1.084-.55 1.967-1 3.417-1 1.5 0 2.333.417 3.417 1C33 33.2 34.384 33.9 36.667 33.9v-3.25c-1.5 0-2.333-.417-3.416-1-1.25-.634-2.667-1.334-4.917-1.334zm0-7.416c-2.25 0-3.667.716-4.917 1.333-1.083.533-1.966 1-3.416 1-1.5 0-2.334-.417-3.417-1-1.25-.633-2.617-1.333-4.917-1.333s-3.666.716-4.916 1.333c-1.084.533-1.95 1-3.417 1v3.25c2.25 0 3.667-.717 4.917-1.333 1.083-.584 1.916-1 3.416-1s2.334.416 3.417 1c1.25.633 2.617 1.333 4.917 1.333s3.666-.717 4.916-1.333c1.084-.584 1.917-1 3.417-1 1.5 0 2.333.416 3.417 1 1.25.633 2.633 1.333 4.916 1.333v-3.25c-1.5 0-2.333-.417-3.416-1C32 21.6 30.584 20.9 28.334 20.9zm4.917-13.467C32 6.8 30.617 6.1 28.334 6.1s-3.667.7-4.917 1.333c-1.083.533-1.966 1-3.416 1-1.5 0-2.334-.417-3.417-1-1.25-.617-2.617-1.333-4.917-1.333s-3.666.7-4.916 1.333c-1.084.55-1.95 1-3.417 1v3.217c2.25 0 3.667-.717 4.917-1.334 1.083-.55 1.95-1 3.416-1 1.467 0 2.334.417 3.417 1 1.25.634 2.617 1.334 4.917 1.334s3.666-.717 4.916-1.334c1.084-.533 1.967-1 3.417-1 1.5 0 2.333.417 3.417 1 1.25.634 2.633 1.334 4.916 1.334V8.4c-1.5 0-2.333-.417-3.416-.967zm-4.917 6.05c-2.25 0-3.667.717-4.917 1.333-1.083.584-1.916 1-3.416 1s-2.334-.416-3.417-1c-1.25-.633-2.617-1.333-4.917-1.333s-3.666.717-4.916 1.333c-1.084.584-1.917 1-3.417 1v3.25c2.25 0 3.667-.716 4.917-1.333 1.083-.533 1.966-1 3.416-1s2.334.417 3.417 1c1.25.633 2.617 1.333 4.917 1.333s3.666-.716 4.916-1.333c1.084-.533 1.967-1 3.417-1 1.5 0 2.333.417 3.417 1 1.25.633 2.633 1.333 4.916 1.333v-3.25c-1.5 0-2.333-.416-3.416-1-1.25-.633-2.667-1.333-4.917-1.333z" fill="#F15F31"/>
    </g>
    <defs>
        <clipPath id="9ys3vrmm4a">
            <path fill="#fff" d="M0 0h40v40H0z"/>
        </clipPath>
    </defs>
</svg>
