<svg width="160" height="160" viewBox="0 0 160 160" fill="none" xmlns="http://www.w3.org/2000/svg">
    <path d="M100.841 41.6h-16.56l-6.909 35.367-.92 5.653-1.233-5.653L65.79 41.6H47.84l-7.516 35.367-.994 5.653-1.14-5.653L29.44 41.6H0l3.156 15.257h12.88l.202.101c.442.221.442.221 2.677 10.055l2.245 9.954 9.062 39.833h17.517l8.694-39.833.727-4.374.8 4.374 9.274 39.833h18.814c.846-4.033 4.747-24.023 7.829-39.833 2.06-10.654 3.753-19.42 3.882-20.165h3.082l54.597.055L158.4 41.6h-57.559z" fill="#fff"/>
</svg>
