<svg width="58" height="58" viewBox="0 0 58 58" fill="none" xmlns="http://www.w3.org/2000/svg">
    <g clipPath="url(#pc1lolzf7a)">
        <path d="M28.999 5c-12.792 10.92-19.2 20.352-19.2 28.32 0 11.952 9.12 19.68 19.2 19.68s19.2-7.728 19.2-19.68c0-7.968-6.408-17.4-19.2-28.32zM18.99 33.8c.888 0 1.608.624 1.776 1.488.984 5.328 5.472 7.152 8.736 6.888a1.805 1.805 0 0 1 1.896 1.8c0 .96-.768 1.752-1.728 1.8-5.112.312-11.088-2.616-12.456-9.888-.192-1.08.672-2.088 1.776-2.088z" fill="#fff"/>
    </g>
    <defs>
        <clipPath id="pc1lolzf7a">
            <path fill="#fff" transform="translate(.2 .2)" d="M0 0h57.6v57.6H0z"/>
        </clipPath>
    </defs>
</svg>
