<svg width="40" height="40" viewBox="0 0 40 40" fill="none" xmlns="http://www.w3.org/2000/svg">
<path fill-rule="evenodd" clip-rule="evenodd" d="M1 10.5002C1 8.75125 2.41776 7.3335 4.16666 7.3335H35.8333C37.5822 7.3335 39 8.75126 39 10.5002V32.6667H1V10.5002ZM10.2332 27.1214C9.95628 27.1214 9.74264 26.8761 9.7822 26.5991L10.4943 21.5826H7.72492C7.05001 21.5826 7.43813 21.025 7.47703 20.9691L7.47963 20.9654C8.02157 20.0062 8.71081 18.7969 9.5448 17.3336L9.54484 17.3336C10.2451 16.1049 11.0474 14.6972 11.9503 13.1082C12.0294 12.9658 12.1876 12.8787 12.3459 12.8787C12.6228 12.8787 12.8365 13.124 12.7969 13.401L12.0848 18.4175H14.8621C15.1786 18.4175 15.3527 18.5679 15.1786 18.9398C13.2918 22.2316 11.9786 24.53 11.233 25.835L11.2329 25.8352C10.9498 26.3307 10.7486 26.6829 10.6289 26.8919C10.5497 27.0343 10.3994 27.1214 10.2332 27.1214ZM33.4571 14.8541H22.5479C22.1363 15.5666 21.8513 16.3741 21.7404 17.2291H34.2488C34.1538 16.3741 33.8846 15.5666 33.4571 14.8541ZM33.4571 18.8124H22.5479C22.1363 19.5249 21.8513 20.3324 21.7404 21.1874H34.2488C34.1538 20.3324 33.8846 19.5249 33.4571 18.8124ZM22.5502 22.7707H33.4573C33.8847 23.4832 34.1538 24.2907 34.2488 25.1457H21.7429C21.8537 24.2907 22.1387 23.4832 22.5502 22.7707Z" fill="#D1D1D6"/>
</svg>
