<svg width="33" height="32" viewBox="0 0 33 32" fill="none" xmlns="http://www.w3.org/2000/svg">
<path d="M17.8349 4H15.1718V17.3333H17.8349V4ZM24.2662 6.89333L22.3755 8.78667C24.4793 10.48 25.8241 13.08 25.8241 16C25.8241 21.16 21.6564 25.3333 16.5034 25.3333C11.3503 25.3333 7.18261 21.16 7.18261 16C7.18261 13.08 8.52746 10.48 10.618 8.77333L8.74051 6.89333C6.15732 9.09333 4.51953 12.3467 4.51953 16C4.51953 22.6267 9.88563 28 16.5034 28C23.1211 28 28.4872 22.6267 28.4872 16C28.4872 12.3467 26.8494 9.09333 24.2662 6.89333Z" fill="#55B966"/>
</svg>
