<svg width="40" height="40" viewBox="0 0 40 40" fill="none" xmlns="http://www.w3.org/2000/svg">
<g clipPath="url(#clip0_13230_11265)">
<circle cx="20" cy="20" r="20" fill="white"/>
<mask id="mask0_13230_11265" style="mask-type:alpha" maskUnits="userSpaceOnUse" x="8" y="8" width="24" height="24">
<rect x="8" y="8" width="24" height="24" fill="#D9D9D9"/>
</mask>
<g mask="url(#mask0_13230_11265)">
<path d="M12 21V18C12 17.05 12.2833 16.225 12.85 15.525C13.4167 14.825 14.1333 14.3583 15 14.125V12C15 11.45 15.1958 10.9792 15.5875 10.5875C15.9792 10.1958 16.45 10 17 10H23C23.55 10 24.0208 10.1958 24.4125 10.5875C24.8042 10.9792 25 11.45 25 12V14.125C25.8667 14.3583 26.5833 14.825 27.15 15.525C27.7167 16.225 28 17.05 28 18V21H12ZM16 30C14.9 30 13.9583 29.6083 13.175 28.825C12.3917 28.0417 12 27.1 12 26V23H28V26C28 27.1 27.6083 28.0417 26.825 28.825C26.0417 29.6083 25.1 30 24 30H16ZM17 14H19C19 13.7167 19.0958 13.4792 19.2875 13.2875C19.4792 13.0958 19.7167 13 20 13C20.2833 13 20.5208 13.0958 20.7125 13.2875C20.9042 13.4792 21 13.7167 21 14H23V12H17V14Z" fill="#404045"/>
</g>
</g>
<defs>
<clipPath id="clip0_13230_11265">
<rect width="40" height="40" fill="white"/>
</clipPath>
</defs>
</svg>
