<svg width="21" height="20" viewBox="0 0 21 20" fill="none" xmlns="http://www.w3.org/2000/svg">
    <g clipPath="url(#9r8sbb4dua)">
        <path d="M12.997 10.834V4.167c0-1.383-1.117-2.5-2.5-2.5a2.497 2.497 0 0 0-2.5 2.5v6.667a4.175 4.175 0 0 0-1.667 3.333c0 2.3 1.867 4.167 4.167 4.167s4.166-1.867 4.166-4.167a4.174 4.174 0 0 0-1.666-3.333zM11.33 9.167H9.663v-5c0-.458.375-.833.834-.833.458 0 .833.375.833.833h-.417a.413.413 0 0 0-.416.417c0 .233.183.416.416.416h.417v1.667h-.417a.413.413 0 0 0-.416.417c0 .233.183.416.416.416h.417v1.667z" fill="#0CA9DA"/>
    </g>
    <defs>
        <clipPath id="9r8sbb4dua">
            <path fill="#fff" transform="translate(.5)" d="M0 0h20v20H0z"/>
        </clipPath>
    </defs>
</svg>
