<svg width="41" height="41" viewBox="0 0 41 41" fill="none" xmlns="http://www.w3.org/2000/svg">
    <g clipPath="url(#8850gbg37a)">
        <path d="M25.673 21.906V8.572c0-2.766-2.233-5-5-5-2.766 0-5 2.234-5 5v13.334a8.35 8.35 0 0 0-3.333 6.666c0 4.6 3.733 8.334 8.333 8.334s8.334-3.734 8.334-8.334a8.35 8.35 0 0 0-3.334-6.666zm-3.333-3.334h-3.334v-10c0-.916.75-1.666 1.667-1.666s1.667.75 1.667 1.666h-.834a.825.825 0 0 0-.833.834c0 .466.367.833.834.833h.833v3.333h-.834a.825.825 0 0 0-.833.834c0 .466.367.833.834.833h.833v3.333z" fill="#F15F31"/>
    </g>
    <defs>
        <clipPath id="8850gbg37a">
            <path fill="#fff" transform="translate(.68 .238)" d="M0 0h40v40H0z"/>
        </clipPath>
    </defs>
</svg>
