<svg width="41" height="41" viewBox="0 0 41 41" fill="none" xmlns="http://www.w3.org/2000/svg">
    <g clipPath="url(#xi0wixih0a)" fill="#7D69DE">
        <path d="M8.178 20.24a4.167 4.167 0 1 0 0-8.334 4.167 4.167 0 0 0 0 8.334zM15.678 13.572a4.167 4.167 0 1 0 0-8.334 4.167 4.167 0 0 0 0 8.334zM25.678 13.572a4.167 4.167 0 1 0 0-8.334 4.167 4.167 0 0 0 0 8.334zM33.178 20.24a4.167 4.167 0 1 0 0-8.334 4.167 4.167 0 0 0 0 8.334zM29.576 25.005c-1.45-1.7-2.666-3.15-4.133-4.85-.767-.9-1.75-1.8-2.917-2.2a3.39 3.39 0 0 0-.55-.15c-.416-.067-.866-.067-1.3-.067-.433 0-.883 0-1.316.084a3.368 3.368 0 0 0-.55.15c-1.167.4-2.134 1.3-2.917 2.2-1.45 1.7-2.667 3.15-4.134 4.85-2.183 2.183-4.866 4.6-4.366 7.983.483 1.7 1.7 3.383 3.883 3.867 1.217.25 5.1-.734 9.233-.734h.3c4.134 0 8.017.967 9.234.734 2.183-.484 3.4-2.184 3.883-3.867.517-3.4-2.167-5.817-4.35-8z"/>
    </g>
    <defs>
        <clipPath id="xi0wixih0a">
            <path fill="#fff" transform="translate(.68 .238)" d="M0 0h40v40H0z"/>
        </clipPath>
    </defs>
</svg>
