<svg width="33" height="33" viewBox="0 0 33 33" fill="none" xmlns="http://www.w3.org/2000/svg">
    <g clipPath="url(#o11olutrpa)">
        <path d="M16.681 2.904c-7.36 0-13.333 5.974-13.333 13.334 0 7.36 5.973 13.333 13.333 13.333s13.333-5.973 13.333-13.333S24.041 2.904 16.681 2.904zm-3.613 19.054L8.28 17.17c-.52-.52-.52-1.36 0-1.88.52-.52 1.36-.52 1.88 0l3.853 3.84 9.174-9.173c.52-.52 1.36-.52 1.88 0 .52.52.52 1.36 0 1.88l-10.12 10.12c-.507.52-1.36.52-1.88 0z" fill="#55B966"/>
    </g>
    <defs>
        <clipPath id="o11olutrpa">
            <path fill="#fff" transform="translate(.68 .238)" d="M0 0h32v32H0z"/>
        </clipPath>
    </defs>
</svg>
