<svg width="72" height="72" viewBox="0 0 72 72" fill="none" xmlns="http://www.w3.org/2000/svg">
    <path d="m64.05 56.85-3.525-3.525c1.25-.85 2.225-1.8 2.925-2.85.7-1.05 1.05-2.3 1.05-3.75 0-2.15-.775-3.988-2.325-5.513-1.55-1.525-3.4-2.287-5.55-2.287H51.6V32.85c0-4.4-1.525-8.088-4.575-11.063-3.05-2.975-6.775-4.462-11.175-4.462-1.4 0-2.913.225-4.538.675a13.475 13.475 0 0 0-4.462 2.175l-3.15-3.15c1.8-1.45 3.738-2.513 5.813-3.188a20.366 20.366 0 0 1 6.337-1.012c5.55 0 10.313 1.975 14.288 5.925C54.112 22.7 56.1 27.45 56.1 33v1.575c3.6-.05 6.65 1.075 9.15 3.375S69 43.175 69 46.725c0 1.75-.412 3.587-1.237 5.512-.826 1.925-2.063 3.463-3.713 4.613zm-4.275 9.3-7.05-6.975H18.6c-4.4 0-8.1-1.475-11.1-4.425C4.5 51.8 3 48.125 3 43.725c0-4 1.263-7.35 3.787-10.05 2.526-2.7 5.688-4.35 9.488-4.95.1-.7.263-1.488.488-2.363A9.513 9.513 0 0 1 17.7 24L6.825 13.125c-.45-.45-.675-.975-.675-1.575s.225-1.125.675-1.575c.45-.45.975-.675 1.575-.675s1.125.225 1.575.675L63 63c.45.45.675.975.675 1.575S63.45 65.7 63 66.15a2.2 2.2 0 0 1-1.612.675 2.2 2.2 0 0 1-1.613-.675zM18.6 54.675h29.775l-27-27a6.13 6.13 0 0 0-1.087 2.55c-.175.95-.263 1.875-.263 2.775H18.6c-3.1 0-5.725.987-7.875 2.962C8.575 37.937 7.5 40.45 7.5 43.5c0 3.1 1.075 5.737 3.225 7.912 2.15 2.175 4.775 3.263 7.875 3.263z" fill="#000"/>
</svg>
