<svg width="72" height="72" viewBox="0 0 72 72" fill="none" xmlns="http://www.w3.org/2000/svg">
    <circle cx="36" cy="36" r="36" fill="#4C85A9"/>
    <g clipPath="url(#ky4h1yopsa)" fill="#fff">
        <path d="M36 19.772v-4.15c0-1.043-1.252-1.553-1.97-.81l-6.491 6.467a1.148 1.148 0 0 0 0 1.646l6.467 6.468c.742.718 1.994.208 1.994-.835v-4.15c7.673 0 13.91 6.236 13.91 13.91 0 6.305-4.243 11.637-9.992 13.33-.974.277-1.6 1.205-1.6 2.201 0 1.507 1.438 2.69 2.898 2.25 7.696-2.25 13.33-9.343 13.33-17.781 0-10.247-8.3-18.546-18.546-18.546zM22.091 38.317c0-3.106 1.02-5.98 2.759-8.322a2.33 2.33 0 0 0-.209-3.037c-.974-.973-2.643-.88-3.477.232a18.55 18.55 0 0 0-3.71 11.127c0 8.439 5.634 15.532 13.33 17.78 1.46.441 2.898-.741 2.898-2.248 0-.997-.626-1.924-1.6-2.202-5.749-1.692-9.991-7.024-9.991-13.33z"/>
    </g>
    <defs>
        <clipPath id="ky4h1yopsa">
            <path fill="#fff" transform="translate(8.182 8.182)" d="M0 0h55.636v55.636H0z"/>
        </clipPath>
    </defs>
</svg>
