<svg width="120" height="120" viewBox="0 0 120 120" fill="none" xmlns="http://www.w3.org/2000/svg">
    <path d="M60 120c33.137 0 60-26.863 60-60S93.137 0 60 0 0 26.863 0 60s26.863 60 60 60z" fill="#000"/>
    <path d="m90.32 77.93-25.9-44.94c-1.888-3.26-6.519-3.26-8.406 0l-25.9 44.94c-1.887 3.26.514 7.204 4.116 7.204h51.973c3.774 0 6.004-3.945 4.117-7.204z" fill="#C8102E"/>
    <path d="M60.306 78.446a3.43 3.43 0 1 0 0-6.862 3.43 3.43 0 0 0 0 6.862zM60.13 66.952c-1.543 0-2.915-1.2-3.087-2.745l-1.2-14.923c-.172-1.715 1.2-3.259 3.087-3.259h2.573c1.715 0 3.088 1.544 3.088 3.26L63.39 64.206c-.343 1.544-1.715 2.745-3.26 2.745z" fill="#fff"/>
</svg>
