<svg width="80" height="80" viewBox="0 0 80 80" fill="none" xmlns="http://www.w3.org/2000/svg">
    <path d="m19.237 29.204 5.796-1.553-3.882-14.489c-.225-.837-.684-1.456-1.378-1.857-.694-.4-1.46-.489-2.297-.264-.805.216-1.415.672-1.832 1.37-.417.7-.513 1.467-.289 2.304l3.882 14.489zm-9.52 10.833 28.977-7.764-1.552-5.796-28.978 7.765 1.553 5.795zm.015 12.42 6.954-1.864-1.294-4.83c-.077-.29-.043-.549.102-.777.146-.23.348-.378.605-.447.29-.078.547-.052.772.078.224.13.375.339.453.629l1.294 4.83 7.728-2.071-1.295-4.83c-.077-.29-.043-.549.103-.778.145-.229.347-.377.605-.447.29-.077.546-.051.771.078.224.13.376.34.453.63l1.294 4.83 7.728-2.071-1.294-4.83c-.078-.29-.044-.55.102-.778.146-.229.347-.378.605-.447.29-.077.547-.051.771.078.225.13.376.34.453.63l1.295 4.829 6.954-1.864-5.003-9.012-30.33 8.127.174 10.306zm34.68-6.187-32.648 8.748c-1.256.336-2.404.109-3.444-.682s-1.563-1.842-1.57-3.151l-.19-11.337-1.035-3.864c-.285-1.063-.15-2.073.404-3.033s1.362-1.581 2.424-1.866l7.728-2.07-3.624-13.524c-.431-1.61-.234-3.129.59-4.558.826-1.428 2.043-2.359 3.653-2.79 1.61-.431 3.13-.235 4.558.59 1.429.825 2.359 2.043 2.79 3.653l3.624 13.523 7.727-2.07c1.063-.286 2.074-.151 3.033.403.96.554 1.581 1.362 1.866 2.424l1.035 3.864 5.504 9.914c.65 1.137.722 2.308.217 3.513-.506 1.206-1.386 1.976-2.642 2.313zM25.032 27.65l-5.795 1.553.846-.227 2.052-.55 2.077-.556.82-.22zM63.008 17.423c0-1.03-2.558-1.896-6.038-2.153-.257-3.48-1.123-6.039-2.153-6.039s-1.896 2.56-2.154 6.039c-3.479.257-6.038 1.124-6.038 2.153 0 1.03 2.56 1.896 6.038 2.154.258 3.479 1.124 6.038 2.154 6.038 1.03 0 1.895-2.56 2.153-6.038 3.48-.258 6.038-1.124 6.038-2.154zM66.69 11.173c0-.4-.996-.738-2.352-.839-.1-1.355-.438-2.353-.84-2.353-.4 0-.738.998-.838 2.353-1.356.1-2.353.438-2.353.84 0 .4.997.738 2.353.838.1 1.356.438 2.353.839 2.353.4 0 .739-.997.839-2.353 1.356-.1 2.353-.437 2.353-.839zM70.375 25.313c0-.717-1.782-1.32-4.206-1.5-.18-2.423-.782-4.206-1.5-4.206-.717 0-1.32 1.783-1.5 4.206-2.424.18-4.206.783-4.206 1.5s1.782 1.32 4.205 1.5c.18 2.423.784 4.206 1.5 4.206.719 0 1.321-1.783 1.5-4.206 2.425-.18 4.207-.783 4.207-1.5zM11 68.81c0 .352.877.65 2.07.737.089 1.194.386 2.071.74 2.071.352 0 .65-.877.737-2.07 1.194-.089 2.071-.386 2.071-.739s-.877-.65-2.07-.738c-.089-1.193-.386-2.07-.739-2.07s-.65.877-.738 2.07c-1.193.088-2.07.385-2.07.738zM17 64.021c0 .631 1.568 1.162 3.701 1.32.158 2.132.689 3.701 1.32 3.701.631 0 1.162-1.569 1.32-3.701 2.133-.158 3.701-.689 3.701-1.32 0-.631-1.568-1.162-3.7-1.32-.159-2.133-.69-3.7-1.32-3.7-.632 0-1.163 1.568-1.32 3.7-2.134.158-3.702.689-3.702 1.32z" fill="#4C85A9"/>
    <path d="M34 55v10c0 .833.292 1.542.875 2.125A2.893 2.893 0 0 0 37 68h34c.833 0 1.542-.292 2.125-.875A2.893 2.893 0 0 0 74 65V39c0-.833-.292-1.542-.875-2.125A2.893 2.893 0 0 0 71 36H54v3h17v26H37V55h-3z" fill="#4C85A9"/>
    <path d="M61.575 52.925c-.283.283-.642.425-1.075.425h-13c-.433 0-.792-.142-1.075-.425-.283-.283-.425-.642-.425-1.075 0-.433.142-.792.425-1.075.283-.283.642-.425 1.075-.425h13c.433 0 .792.142 1.075.425.283.283.425.642.425 1.075 0 .433-.142.792-.425 1.075z" fill="#4C85A9"/>
</svg>
