<svg width="49" height="49" viewBox="0 0 49 49" fill="none" xmlns="http://www.w3.org/2000/svg">
    <path d="M9.429 35.94a.545.545 0 0 1-.774-.111 19.479 19.479 0 0 1-3.61-10.364.545.545 0 0 1 .538-.568l7.65-.16a.58.58 0 0 1 .583.544 10.713 10.713 0 0 0 1.826 5.245.58.58 0 0 1-.118.788l-6.095 4.627z" fill="#fff"/>
    <path d="M5.712 22.26a.545.545 0 0 1-.48-.618 19.478 19.478 0 0 1 4.604-9.962.545.545 0 0 1 .781-.036l5.614 5.2a.58.58 0 0 1 .041.796 10.714 10.714 0 0 0-2.33 5.041.58.58 0 0 1-.632.485l-7.598-.906zM12.287 10.048a.545.545 0 0 1 .071-.778A19.479 19.479 0 0 1 22.52 5.123c.306-.031.573.2.596.507l.56 7.63a.58.58 0 0 1-.513.611c-1.869.236-3.642.96-5.142 2.098a.58.58 0 0 1-.794-.076l-4.939-5.845zM25.754 5.62a.545.545 0 0 1 .592-.51 19.479 19.479 0 0 1 10.19 4.075c.242.19.273.542.076.778l-4.898 5.879a.58.58 0 0 1-.793.082 10.712 10.712 0 0 0-5.156-2.062.58.58 0 0 1-.518-.607l.507-7.635zM38.294 11.547c.224-.21.577-.2.78.03a19.479 19.479 0 0 1 4.674 9.93.545.545 0 0 1-.475.622l-7.591.959a.58.58 0 0 1-.637-.48 10.713 10.713 0 0 0-2.364-5.026.58.58 0 0 1 .035-.797l5.578-5.238zM43.408 23.774a.545.545 0 0 1 .57.535c.037 3.733-1 7.4-2.988 10.56a.545.545 0 0 1-.766.157l-6.358-4.256a.58.58 0 0 1-.165-.78 10.714 10.714 0 0 0 1.512-5.344.58.58 0 0 1 .55-.578l7.645-.294z" fill="#333"/>
    <path d="M22.938 34.63h.156l.081-.133-.237-.145.237.145.002-.002.004-.007.017-.028.07-.113.276-.45 1.107-1.8c.985-1.599 2.463-3.998 4.437-7.195l.007-.01.005-.01.069-.137a.567.567 0 0 0-.036-.586c-.138-.199-.383-.294-.682-.294h-3.184l.953-6.175.05-.321H24.787l-.082.133c-1.056 1.721-2.006 3.266-2.848 4.636-1.193 1.942-2.17 3.531-2.928 4.772a.382.382 0 0 0-.017.024l-.01.016c-.016.025-.044.07-.091.15a1.163 1.163 0 0 0-.134.302.587.587 0 0 0 .015.37c.117.287.432.362.738.362h3.183l-.952 6.175-.05.321h1.327z" fill="#fff" stroke="#fff" stroke-width=".557"/>
</svg>
