<svg width="24" height="24" viewBox="0 0 24 24" fill="none" xmlns="http://www.w3.org/2000/svg">
<rect width="24" height="24" fill="white"/>
<path d="M15.395 7.50007C14.4075 7.50007 13.4934 7.65897 12.6859 7.95217L13.1222 3.62415C13.1601 3.25712 12.8371 2.95865 12.4686 3.0047C9.66671 3.35626 7.50007 5.72962 7.50007 8.60501C7.50007 9.59254 7.65897 10.5066 7.95217 11.3141L3.62415 10.8778C3.25712 10.8399 2.95865 11.1629 3.0047 11.5314C3.35626 14.3333 5.72962 16.4999 8.60501 16.4999C9.59254 16.4999 10.5066 16.341 11.3141 16.0478L10.8778 20.3759C10.8409 20.7425 11.1629 21.0414 11.5314 20.9953C14.3333 20.6437 16.4999 18.2704 16.4999 15.395C16.4999 14.4075 16.341 13.4934 16.0478 12.6859L20.3759 13.1222C20.7429 13.1591 21.0414 12.8371 20.9953 12.4686C20.6437 9.66672 18.2704 7.50007 15.395 7.50007V7.50007ZM12 13.125C11.7775 13.125 11.56 13.059 11.375 12.9354C11.19 12.8118 11.0458 12.6361 10.9607 12.4305C10.8755 12.225 10.8532 11.9988 10.8966 11.7805C10.94 11.5623 11.0472 11.3619 11.2045 11.2045C11.3618 11.0472 11.5623 10.94 11.7805 10.8966C11.9988 10.8532 12.2249 10.8755 12.4305 10.9607C12.6361 11.0458 12.8118 11.19 12.9354 11.375C13.059 11.56 13.125 11.7775 13.125 12C13.125 12.2984 13.0065 12.5845 12.7955 12.7955C12.5845 13.0065 12.2984 13.125 12 13.125V13.125Z" fill="black"/>
</svg>
