<svg width="24" height="24" viewBox="0 0 24 24" fill="none" xmlns="http://www.w3.org/2000/svg">
<rect width="24" height="24" fill="white"/>
<path d="M3 12C3 14.21 3.91 16.2 5.36 17.64L3.85 19.15C3.54 19.46 3.76 20 4.21 20H8.5C8.78 20 9 19.78 9 19.5V15.21C9 14.76 8.46 14.54 8.15 14.86L6.76 16.25C5.68 15.15 5 13.66 5 12C5 9.61 6.4 7.54 8.43 6.58C8.77 6.42 9 6.11 9 5.74V5.55C9 4.87 8.29 4.44 7.68 4.73C4.92 5.99 3 8.77 3 12ZM19.79 4H15.5C15.22 4 15 4.22 15 4.5V8.79C15 9.24 15.54 9.46 15.85 9.14L17.24 7.75C18.32 8.85 19 10.34 19 12C19 14.39 17.6 16.46 15.57 17.42C15.23 17.58 15 17.89 15 18.26V18.44C15 19.12 15.71 19.55 16.32 19.26C19.08 18.01 21 15.23 21 12C21 9.79 20.09 7.8 18.64 6.36L20.15 4.85C20.46 4.54 20.24 4 19.79 4Z" fill="black"/>
<path fill-rule="evenodd" clip-rule="evenodd" d="M10.2294 18.5H11.7037L11.8432 18.2272L12.0635 17.7968C12.2106 17.5095 12.4315 17.0785 12.7262 16.5041C13.3156 15.3551 14.2005 13.6319 15.3824 11.3355L15.3913 11.3182L15.4392 11.2043C15.521 11.0164 15.5309 10.7639 15.4021 10.5413C15.2523 10.2823 14.9795 10.1667 14.6979 10.1667H13.1662L13.7662 5.5H12.2919L12.1526 5.77232C11.5205 7.00833 10.9521 8.11797 10.4482 9.10187L10.4481 9.10208L10.448 9.10238C9.73601 10.4924 9.15262 11.6315 8.69933 12.5213L8.69262 12.533L8.6872 12.5429L8.67911 12.5582C8.66902 12.5776 8.65152 12.612 8.62304 12.6687C8.58275 12.7488 8.54243 12.8459 8.51949 12.9526C8.49714 13.0565 8.48407 13.2033 8.53706 13.3592C8.66978 13.7498 9.04871 13.8333 9.29773 13.8333H10.8294L10.2294 18.5ZM9.10793 13.3006C9.08402 13.2897 9.06455 13.2763 9.04907 13.2608C9.06455 13.2763 9.08402 13.2897 9.10793 13.3006ZM9.11027 12.8131C9.11102 12.8117 9.11175 12.8102 9.11245 12.8089C9.12631 12.7817 9.13063 12.7737 9.13025 12.775C9.12947 12.776 9.12462 12.7851 9.11245 12.8089C9.11182 12.8101 9.11116 12.8114 9.11049 12.8127M9.11194 12.8129C9.11187 12.813 9.1118 12.8132 9.11172 12.8133C9.10754 12.8226 9.11504 12.8076 9.12174 12.7937C9.18963 12.6604 9.26009 12.5222 9.33393 12.3774M10.4566 10.1824C10.5961 9.9099 10.7415 9.62608 10.8927 9.33091C10.9557 9.20792 11.0197 9.08296 11.0847 8.95603C11.0197 9.08297 10.9557 9.20794 10.8927 9.33094C10.7415 9.62609 10.5961 9.90991 10.4566 10.1824ZM9.11194 12.8129C9.11667 12.8036 9.12964 12.7771 9.13025 12.775Z" fill="black"/>
</svg>
