<svg width="24" height="24" viewBox="0 0 24 24" fill="none" xmlns="http://www.w3.org/2000/svg">
<rect width="24" height="24" fill="white"/>
<path d="M22 17C20.89 17 20.27 16.5067 19.82 16.1467C19.45 15.8533 19.22 15.6667 18.67 15.6667C18.11 15.6667 17.89 15.84 17.52 16.1467C17.06 16.5067 16.45 17 15.34 17C14.23 17 13.61 16.5067 13.16 16.1467C12.79 15.8533 12.56 15.6667 12.01 15.6667C11.45 15.6667 11.23 15.84 10.86 16.1467C10.4 16.5067 9.78 17 8.67 17C7.56 17 6.94 16.5067 6.49 16.1467C6.12 15.84 5.89 15.6667 5.34 15.6667C4.79 15.6667 4.56 15.84 4.19 16.1467C3.73 16.5067 3.11 17 2 17V14.3333C2.56 14.3333 2.78 14.16 3.15 13.8533C3.61 13.4933 4.23 13 5.34 13C6.45 13 7.07 13.4933 7.52 13.8533C7.89 14.16 8.11 14.3333 8.67 14.3333C9.23 14.3333 9.45 14.16 9.82 13.8533C10.28 13.4933 10.9 13 12.01 13C13.12 13 13.74 13.4933 14.19 13.8533C14.56 14.1467 14.79 14.3333 15.34 14.3333C15.89 14.3333 16.12 14.16 16.49 13.8533C16.94 13.4933 17.56 13 18.67 13C19.78 13 20.4 13.4933 20.85 13.8533C21.22 14.16 21.44 14.3333 22 14.3333V17ZM22 11C20.89 11 20.27 10.5067 19.82 10.1467C19.45 9.85333 19.22 9.66667 18.67 9.66667C18.11 9.66667 17.89 9.84 17.52 10.1467C17.07 10.5067 16.45 11 15.34 11C14.23 11 13.61 10.5067 13.16 10.1467C12.79 9.85333 12.56 9.66667 12.01 9.66667C11.45 9.66667 11.23 9.84 10.86 10.1467C10.41 10.5067 9.79 11 8.68 11C7.57 11 6.95 10.5067 6.5 10.1467C6.13 9.85333 5.9 9.66667 5.35 9.66667C4.8 9.66667 4.57 9.84 4.2 10.1467C3.73 10.5067 3.11 11 2 11V8.33333C2.56 8.33333 2.78 8.16 3.15 7.85333C3.6 7.49333 4.22 7 5.33 7C6.44 7 7.06 7.49333 7.51 7.85333C7.88 8.14667 8.11 8.33333 8.66 8.33333C9.22 8.33333 9.44 8.16 9.81 7.85333C10.26 7.49333 10.88 7 11.99 7C13.1 7 13.72 7.49333 14.17 7.85333C14.54 8.14667 14.77 8.33333 15.32 8.33333C15.87 8.33333 16.1 8.16 16.47 7.85333C16.92 7.49333 17.54 7 18.65 7C19.76 7 20.38 7.49333 20.83 7.85333C21.2 8.14667 21.43 8.33333 21.98 8.33333V11H22Z" fill="black"/>
</svg>
