<svg width="25" height="21" viewBox="0 0 25 21" fill="none" xmlns="http://www.w3.org/2000/svg">
    <path d="M22.469 12.723c.008-.075.031-.145.031-.22 0-1.378-1.121-2.5-2.5-2.5-.492 0-.945.15-1.332.392a4.374 4.374 0 0 0-3.98-2.579 4.375 4.375 0 0 0-4.376 4.375c0 .118.028.227.036.34-1.938.145-3.473 1.746-3.473 3.723 0 2.07 1.68 3.75 3.75 3.75H21.25c2.07 0 3.75-1.68 3.75-3.75a3.738 3.738 0 0 0-2.531-3.531zM5.656 11.84a4.373 4.373 0 1 1 6.188-6.184c.379.38.66.817.87 1.278a5.607 5.607 0 0 1 1.2-.293l1.164-3.473a.592.592 0 0 0-.75-.75l-3.43 1.144L9.278.329a.591.591 0 0 0-1.06 0L6.603 3.563 3.168 2.417a.595.595 0 0 0-.75.75l1.144 3.43-3.234 1.62a.591.591 0 0 0 0 1.06l3.235 1.617-1.145 3.43a.592.592 0 0 0 .75.75l2.973-.99c.238-.483.546-.925.921-1.308a4.306 4.306 0 0 1-1.406-.937zM5.47 8.746a3.281 3.281 0 0 0 2.652 3.215c.313-.184.637-.344.984-.457a5.63 5.63 0 0 1 2.633-4.102A3.287 3.287 0 0 0 8.75 5.47a3.283 3.283 0 0 0-3.281 3.277z" fill="#fff"/>
</svg>
